<?xml version="1.0" encoding="UTF-8" standalone="no"?>
<svg
   xmlns:dc="http://purl.org/dc/elements/1.1/"
   xmlns:cc="http://creativecommons.org/ns#"
   xmlns:rdf="http://www.w3.org/1999/02/22-rdf-syntax-ns#"
   xmlns:svg="http://www.w3.org/2000/svg"
   xmlns="http://www.w3.org/2000/svg"
   xmlns:sodipodi="http://sodipodi.sourceforge.net/DTD/sodipodi-0.dtd"
   xmlns:inkscape="http://www.inkscape.org/namespaces/inkscape"
   width="94.985413mm"
   height="142.61041mm"
   viewBox="0 0 94.985412 142.61041"
   version="1.1"
   id="svg10278"
   sodipodi:docname="club-ace.svg"
   inkscape:version="1.0.2 (e86c870879, 2021-01-15)">
  <sodipodi:namedview
     pagecolor="#ffffff"
     bordercolor="#666666"
     borderopacity="1"
     objecttolerance="10"
     gridtolerance="10"
     guidetolerance="10"
     inkscape:pageopacity="0"
     inkscape:pageshadow="2"
     inkscape:window-width="2552"
     inkscape:window-height="1375"
     id="namedview9096"
     showgrid="false"
     inkscape:zoom="1.8701299"
     inkscape:cx="38.065969"
     inkscape:cy="269.49999"
     inkscape:window-x="0"
     inkscape:window-y="61"
     inkscape:window-maximized="0"
     inkscape:current-layer="svg10278" />
  <defs
     id="defs10272" />
  <metadata
     id="metadata10275">
    <rdf:RDF>
      <cc:Work
         rdf:about="">
        <dc:format>image/svg+xml</dc:format>
        <dc:type
           rdf:resource="http://purl.org/dc/dcmitype/StillImage" />
        <dc:title />
      </cc:Work>
    </rdf:RDF>
  </metadata>
  <rect
     style="fill:#ffffff;stroke-width:1.3734;stop-color:#000000"
     id="rect26713"
     width="94.985413"
     height="142.61041"
     x="0"
     y="0" />
  <path
     id="path3497"
     d="m 7.1437516,7.8052117 -2.38125,13.2291663 h 1.3229167 l 0.6201171,-3.439583 h 2.199349 l 0.6201171,3.439583 H 10.847918 L 8.4666682,7.8052117 Z m 0.6614583,3.6793623 0.8598958,4.787304 H 6.9453141 Z"
     style="fill:#000000;stroke:none;stroke-width:0.264583" />
  <path
     id="path3497-5"
     d="m 86.518751,134.80522 -2.38125,-13.22918 h 1.322916 l 0.620117,3.43958 h 2.199349 l 0.620118,-3.43958 h 1.322916 l -2.38125,13.22918 z m 0.661458,-3.67938 0.859896,-4.7873 h -1.719792 z"
     style="fill:#000000;stroke:none;stroke-width:0.264583" />
  <path
     id="path3037-95"
     d="m 48.815626,74.215627 c 0.529167,1.058334 1.852083,2.645834 3.175,2.645834 2.38125,0 3.439583,-2.116667 3.439583,-4.7625 0,-2.645833 -1.058333,-5.027083 -3.439583,-5.027083 -1.322917,0 -2.116667,1.322916 -2.910417,2.116666 -0.264583,0.264584 -0.529166,0 -0.264583,-0.264583 0.79375,-0.79375 2.116667,-2.910417 2.116667,-4.7625 0,-2.116667 -1.322917,-4.7625 -3.439584,-4.7625 -2.116666,0 -3.439583,2.645833 -3.439583,4.7625 0,1.852083 1.322917,3.96875 2.116667,4.7625 0.264583,0.264583 0,0.529167 -0.264584,0.264583 -0.79375,-0.79375 -1.5875,-2.116666 -2.910416,-2.116666 -2.38125,0 -3.439583,2.38125 -3.439583,5.027083 0,2.645833 1.058333,4.7625 3.439583,4.7625 1.322916,0 2.645833,-1.5875 3.175,-2.645834 0.264583,-0.264583 0.264583,0 0.264583,0.264584 -0.264583,2.116666 -0.264583,2.645833 -0.529167,4.233333 -0.264583,1.5875 -1.058333,4.497917 -1.058333,4.497917 1.322917,-0.529167 3.96875,-0.529167 5.291667,0 0,0 -0.79375,-2.910417 -1.058334,-4.497917 -0.264583,-1.5875 -0.264583,-2.116667 -0.529166,-4.233333 0,-0.264584 0,-0.529167 0.264583,-0.264584 z"
     style="fill:#000000;fill-opacity:1;stroke:none;stroke-width:0.264583" />
  <path
     id="path3037-1-6"
     d="m 8.4666682,31.088545 c 0.2645834,0.529166 0.9260417,1.322916 1.5874998,1.322916 1.190625,0 1.719792,-1.058333 1.719792,-2.38125 0,-1.322916 -0.529167,-2.513541 -1.719792,-2.513541 -0.6614581,0 -1.0583331,0.661458 -1.4552081,1.058333 -0.1322917,0.132292 -0.2645833,0 -0.1322917,-0.132292 0.396875,-0.396875 1.0583333,-1.455208 1.0583333,-2.38125 0,-1.058333 -0.6614583,-2.38125 -1.7197916,-2.38125 -1.0583333,0 -1.7197916,1.322917 -1.7197916,2.38125 0,0.926042 0.6614583,1.984375 1.0583333,2.38125 0.1322916,0.132292 0,0.264584 -0.1322917,0.132292 -0.396875,-0.396875 -0.79375,-1.058333 -1.4552083,-1.058333 -1.190625,0 -1.7197916,1.190625 -1.7197916,2.513541 0,1.322917 0.5291666,2.38125 1.7197916,2.38125 0.6614583,0 1.3229166,-0.79375 1.5875,-1.322916 0.1322916,-0.132292 0.1322916,0 0.1322916,0.132291 -0.1322916,1.058334 -0.1322916,1.322917 -0.2645833,2.116667 -0.1322917,0.79375 -0.5291667,2.248958 -0.5291667,2.248958 0.6614584,-0.264583 1.984375,-0.264583 2.6458334,0 0,0 -0.396875,-1.455208 -0.5291667,-2.248958 -0.1322917,-0.79375 -0.1322917,-1.058333 -0.2645833,-2.116667 0,-0.132291 0,-0.264583 0.1322916,-0.132291 z"
     style="fill:#000000;fill-opacity:1;stroke:none;stroke-width:0.264583" />
  <path
     id="path3037-1-7-4"
     d="m 87.841667,111.52188 c 0.264584,-0.52917 0.926042,-1.32292 1.5875,-1.32292 1.190625,0 1.719792,1.05833 1.719792,2.38125 0,1.32292 -0.529167,2.51354 -1.719792,2.51354 -0.661458,0 -1.058333,-0.66146 -1.455208,-1.05833 -0.132292,-0.13229 -0.264583,0 -0.132292,0.13229 0.396875,0.39688 1.058334,1.45521 1.058334,2.38125 0,1.05833 -0.661459,2.38125 -1.719792,2.38125 -1.058333,0 -1.719792,-1.32292 -1.719792,-2.38125 0,-0.92604 0.661459,-1.98437 1.058334,-2.38125 0.132291,-0.13229 0,-0.26458 -0.132292,-0.13229 -0.396875,0.39687 -0.79375,1.05833 -1.455208,1.05833 -1.190625,0 -1.719792,-1.19062 -1.719792,-2.51354 0,-1.32292 0.529167,-2.38125 1.719792,-2.38125 0.661458,0 1.322916,0.79375 1.5875,1.32292 0.132291,0.13229 0.132291,0 0.132291,-0.13229 -0.132291,-1.05834 -0.132291,-1.32292 -0.264583,-2.11667 -0.132292,-0.79375 -0.529167,-2.24896 -0.529167,-2.24896 0.661459,0.26458 1.984375,0.26458 2.645834,0 0,0 -0.396875,1.45521 -0.529167,2.24896 -0.132292,0.79375 -0.132292,1.05833 -0.264583,2.11667 0,0.13229 0,0.26458 0.132291,0.13229 z"
     style="fill:#000000;fill-opacity:1;stroke:none;stroke-width:0.264583" />
</svg>
