<?xml version="1.0" encoding="UTF-8" standalone="no"?>
<svg
   xmlns:dc="http://purl.org/dc/elements/1.1/"
   xmlns:cc="http://creativecommons.org/ns#"
   xmlns:rdf="http://www.w3.org/1999/02/22-rdf-syntax-ns#"
   xmlns:svg="http://www.w3.org/2000/svg"
   xmlns="http://www.w3.org/2000/svg"
   width="94.985413mm"
   height="142.61041mm"
   viewBox="0 0 94.985412 142.61041"
   version="1.1"
   id="svg10278">
  <defs
     id="defs10272" />
  <metadata
     id="metadata10275">
    <rdf:RDF>
      <cc:Work
         rdf:about="">
        <dc:format>image/svg+xml</dc:format>
        <dc:type
           rdf:resource="http://purl.org/dc/dcmitype/StillImage" />
        <dc:title></dc:title>
      </cc:Work>
    </rdf:RDF>
  </metadata>
  <g
     id="layer1"
     transform="translate(-102.18586,-26.212644)">
    <g
       transform="matrix(0.26458333,0,0,0.26458333,102.05357,-109.48214)"
       id="g3092"
       style="stroke:none">
      <rect
         rx="29.944447"
         ry="29.944447"
         y="512.86218"
         x="0.5"
         height="539"
         width="359"
         id="rect6472-39"
         style="fill:#ffffff;stroke:none;stroke-width:1" />
      <path
         style="fill:#ff5555;fill-opacity:1;stroke:none"
         id="rect3980-2-1-93-8"
         d="m 20,542.36208 v 5 5 h 5 v -5 h 10 l -10,45 h 5 l 10,-45 v -5 z" />
      <path
         style="fill:#ff5555;fill-opacity:1;stroke:none"
         id="rect3980-2-1-93-0-80"
         d="m 340,1022.3622 v -5 -5 h -5 v 5 h -10 l 10,-45.00004 h -5 l -10,45.00004 v 5 z" />
      <path
         id="path3204-24-1-8"
         d="m 30,602.36218 c 0,0 3,7.5 6.5,12.5 3.5,5 8.5,10 8.5,10 0,0 -5,5 -8.5,10 -3.5,5 -6.5,12.5 -6.5,12.5 0,0 -3,-7.5 -6.5,-12.5 -3.5,-5 -8.5,-10 -8.5,-10 0,0 5,-5 8.5,-10 3.5,-5 6.5,-12.5 6.5,-12.5"
         style="fill:#ff5555;stroke:none" />
      <path
         id="path3204-24-1-1-7"
         d="m 330,917.36218 c 0,0 3,7.5 6.5,12.5 3.5,5 8.5,10 8.5,10 0,0 -5,5 -8.5,10 -3.5,5 -6.5,12.5 -6.5,12.5 0,0 -3,-7.5 -6.5,-12.5 -3.5,-5 -8.5,-10 -8.5,-10 0,0 5,-5 8.5,-10 3.5,-5 6.5,-12.5 6.5,-12.5"
         style="fill:#ff5555;stroke:none" />
      <path
         id="path3204-24-9-7"
         d="m 90,557.36218 c 0,0 6,15 13,25 7,10 17,20 17,20 0,0 -10,10 -17,20 -7,10 -13,25 -13,25 0,0 -6,-15 -13,-25 -7,-10 -17,-20 -17,-20 0,0 10,-10 17,-20 7,-10 13,-25 13,-25"
         style="fill:#ff5555;stroke:none" />
      <path
         id="path3204-24-4-83"
         d="m 270,557.36218 c 0,0 6,15 13,25 7,10 17,20 17,20 0,0 -10,10 -17,20 -7,10 -13,25 -13,25 0,0 -6,-15 -13,-25 -7,-10 -17,-20 -17,-20 0,0 10,-10 17,-20 7,-10 13,-25 13,-25"
         style="fill:#ff5555;stroke:none" />
      <path
         id="path3204-24-8-8"
         d="m 180,647.36218 c 0,0 6,15 13,25 7,10 17,20 17,20 0,0 -10,10 -17,20 -7,10 -13,25 -13,25 0,0 -6,-15 -13,-25 -7,-10 -17,-20 -17,-20 0,0 10,-10 17,-20 7,-10 13,-25 13,-25"
         style="fill:#ff5555;stroke:none" />
      <path
         id="path3204-24-37"
         d="m 90,737.36218 c 0,0 6,15 13,25 7,10 17,20 17,20 0,0 -10,10 -17,20 -7,10 -13,25 -13,25 0,0 -6,-15 -13,-25 -7,-10 -17,-20 -17,-20 0,0 10,-10 17,-20 7,-10 13,-25 13,-25"
         style="fill:#ff5555;stroke:none" />
      <path
         id="path3204-24-82"
         d="m 270,737.36218 c 0,0 6,15 13,25 7,10 17,20 17,20 0,0 -10,10 -17,20 -7,10 -13,25 -13,25 0,0 -6,-15 -13,-25 -7,-10 -17,-20 -17,-20 0,0 10,-10 17,-20 7,-10 13,-25 13,-25"
         style="fill:#ff5555;stroke:none" />
      <path
         id="path3204-24-45-1"
         d="m 90,917.36218 c 0,0 6,15 13,25 7,10 17,20 17,20 0,0 -10,10 -17,20 -7,10 -13,25.00002 -13,25.00002 0,0 -6,-15.00002 -13,-25.00002 -7,-10 -17,-20 -17,-20 0,0 10,-10 17,-20 7,-10 13,-25 13,-25"
         style="fill:#ff5555;stroke:none" />
      <path
         id="path3204-24-5"
         d="m 270,917.36218 c 0,0 6,15 13,25 7,10 17,20 17,20 0,0 -10,10 -17,20 -7,10 -13,25.00002 -13,25.00002 0,0 -6,-15.00002 -13,-25.00002 -7,-10 -17,-20 -17,-20 0,0 10,-10 17,-20 7,-10 13,-25 13,-25"
         style="fill:#ff5555;stroke:none" />
    </g>
  </g>
</svg>
