<?xml version="1.0" encoding="UTF-8" standalone="no"?>
<svg
   xmlns:dc="http://purl.org/dc/elements/1.1/"
   xmlns:cc="http://creativecommons.org/ns#"
   xmlns:rdf="http://www.w3.org/1999/02/22-rdf-syntax-ns#"
   xmlns:svg="http://www.w3.org/2000/svg"
   xmlns="http://www.w3.org/2000/svg"
   width="94.985413mm"
   height="142.61041mm"
   viewBox="0 0 94.985412 142.61041"
   version="1.1"
   id="svg10278">
  <defs
     id="defs10272" />
  <metadata
     id="metadata10275">
    <rdf:RDF>
      <cc:Work
         rdf:about="">
        <dc:format>image/svg+xml</dc:format>
        <dc:type
           rdf:resource="http://purl.org/dc/dcmitype/StillImage" />
        <dc:title></dc:title>
      </cc:Work>
    </rdf:RDF>
  </metadata>
  <g
     id="layer1"
     transform="translate(-102.18586,-26.212644)">
    <g
       transform="matrix(0.26458333,0,0,0.26458333,102.05357,-109.48214)"
       id="g3197"
       style="stroke:none">
      <rect
         rx="29.944447"
         ry="29.944447"
         y="512.86218"
         x="0.5"
         height="539"
         width="359"
         id="rect6472-38"
         style="fill:#ffffff;stroke:none;stroke-width:1" />
      <path
         id="path3204-24-49"
         d="m 180,737.36218 c 0,0 6,15 13,25 7,10 17,20 17,20 0,0 -10,10 -17,20 -7,10 -13,25 -13,25 0,0 -6,-15 -13,-25 -7,-10 -17,-20 -17,-20 0,0 10,-10 17,-20 7,-10 13,-25 13,-25"
         style="fill:#ff5555;stroke:none" />
      <path
         id="path3497-2"
         d="m 27.5,542.36218 -9,50 h 5 l 2.34375,-13 h 8.3125 l 2.34375,13 h 5 l -9,-50 z m 2.5,13.90625 3.25,18.09375 h -6.5 z"
         style="fill:#ff5555;stroke:none" />
      <path
         id="path3497-5-6"
         d="m 327.5,1022.3622 -9,-50.00004 h 5 l 2.34375,13 h 8.3125 l 2.34375,-13 h 5 l -9,50.00004 z m 2.5,-13.9063 3.25,-18.09372 h -6.5 z"
         style="fill:#ff5555;stroke:none" />
      <path
         id="path3204-24-1-57"
         d="m 30,602.36218 c 0,0 3,7.5 6.5,12.5 3.5,5 8.5,10 8.5,10 0,0 -5,5 -8.5,10 -3.5,5 -6.5,12.5 -6.5,12.5 0,0 -3,-7.5 -6.5,-12.5 -3.5,-5 -8.5,-10 -8.5,-10 0,0 5,-5 8.5,-10 3.5,-5 6.5,-12.5 6.5,-12.5"
         style="fill:#ff5555;stroke:none" />
      <path
         id="path3204-24-1-7"
         d="m 330,917.36218 c 0,0 3,7.5 6.5,12.5 3.5,5 8.5,10 8.5,10 0,0 -5,5 -8.5,10 -3.5,5 -6.5,12.5 -6.5,12.5 0,0 -3,-7.5 -6.5,-12.5 -3.5,-5 -8.5,-10 -8.5,-10 0,0 5,-5 8.5,-10 3.5,-5 6.5,-12.5 6.5,-12.5"
         style="fill:#ff5555;stroke:none" />
    </g>
  </g>
</svg>
