<?xml version="1.0" encoding="UTF-8" standalone="no"?>
<svg
   xmlns:dc="http://purl.org/dc/elements/1.1/"
   xmlns:cc="http://creativecommons.org/ns#"
   xmlns:rdf="http://www.w3.org/1999/02/22-rdf-syntax-ns#"
   xmlns:svg="http://www.w3.org/2000/svg"
   xmlns="http://www.w3.org/2000/svg"
   xmlns:sodipodi="http://sodipodi.sourceforge.net/DTD/sodipodi-0.dtd"
   xmlns:inkscape="http://www.inkscape.org/namespaces/inkscape"
   width="94.985413mm"
   height="142.61041mm"
   viewBox="0 0 94.985412 142.61041"
   version="1.1"
   id="svg10278"
   sodipodi:docname="diamond-ace.svg"
   inkscape:version="1.0.2 (e86c870879, 2021-01-15)">
  <sodipodi:namedview
     pagecolor="#ffffff"
     bordercolor="#666666"
     borderopacity="1"
     objecttolerance="10"
     gridtolerance="10"
     guidetolerance="10"
     inkscape:pageopacity="0"
     inkscape:pageshadow="2"
     inkscape:window-width="2552"
     inkscape:window-height="1375"
     id="namedview9109"
     showgrid="false"
     inkscape:zoom="1.8701299"
     inkscape:cx="38.065969"
     inkscape:cy="269.49999"
     inkscape:window-x="0"
     inkscape:window-y="61"
     inkscape:window-maximized="0"
     inkscape:current-layer="svg10278" />
  <defs
     id="defs10272" />
  <metadata
     id="metadata10275">
    <rdf:RDF>
      <cc:Work
         rdf:about="">
        <dc:format>image/svg+xml</dc:format>
        <dc:type
           rdf:resource="http://purl.org/dc/dcmitype/StillImage" />
        <dc:title />
      </cc:Work>
    </rdf:RDF>
  </metadata>
  <rect
     style="fill:#ffffff;stroke-width:1.3734;stop-color:#000000"
     id="rect26713"
     width="94.985413"
     height="142.61041"
     x="0"
     y="-3.5527137e-15" />
  <path
     id="path3204-24-49"
     d="m 47.492709,59.398961 c 0,0 1.5875,3.96875 3.439584,6.614583 1.852083,2.645834 4.497916,5.291667 4.497916,5.291667 0,0 -2.645833,2.645833 -4.497916,5.291666 -1.852084,2.645834 -3.439584,6.614584 -3.439584,6.614584 0,0 -1.5875,-3.96875 -3.439583,-6.614584 -1.852083,-2.645833 -4.497916,-5.291666 -4.497916,-5.291666 0,0 2.645833,-2.645833 4.497916,-5.291667 1.852083,-2.645833 3.439583,-6.614583 3.439583,-6.614583"
     style="fill:#f44336;stroke:none;stroke-width:0.264583" />
  <path
     id="path3497-2"
     d="m 7.1437516,7.8052117 -2.38125,13.2291663 h 1.3229167 l 0.6201171,-3.439583 h 2.199349 l 0.6201171,3.439583 H 10.847918 L 8.4666682,7.8052117 Z m 0.6614583,3.6793623 0.8598958,4.787304 H 6.9453141 Z"
     style="fill:#f44336;stroke:none;stroke-width:0.264583" />
  <path
     id="path3497-5-6"
     d="m 86.518751,134.80522 -2.38125,-13.22918 h 1.322916 l 0.620117,3.43958 h 2.199349 l 0.620118,-3.43958 h 1.322916 l -2.38125,13.22918 z m 0.661458,-3.67938 0.859896,-4.7873 h -1.719792 z"
     style="fill:#f44336;stroke:none;stroke-width:0.264583" />
  <path
     id="path3204-24-1-57"
     d="m 7.8052099,23.680211 c 0,0 0.79375,1.984375 1.7197916,3.307292 0.9260415,1.322917 2.2489585,2.645833 2.2489585,2.645833 0,0 -1.322917,1.322917 -2.2489585,2.645834 -0.9260416,1.322916 -1.7197916,3.307291 -1.7197916,3.307291 0,0 -0.79375,-1.984375 -1.7197916,-3.307291 C 5.1593766,30.956253 3.83646,29.633336 3.83646,29.633336 c 0,0 1.3229166,-1.322916 2.2489583,-2.645833 0.9260416,-1.322917 1.7197916,-3.307292 1.7197916,-3.307292"
     style="fill:#f44336;stroke:none;stroke-width:0.264583" />
  <path
     id="path3204-24-1-7"
     d="m 87.180209,107.02396 c 0,0 0.79375,1.98438 1.719792,3.30729 0.926041,1.32292 2.248958,2.64584 2.248958,2.64584 0,0 -1.322917,1.32291 -2.248958,2.64583 -0.926042,1.32292 -1.719792,3.30729 -1.719792,3.30729 0,0 -0.79375,-1.98437 -1.719792,-3.30729 -0.926041,-1.32292 -2.248958,-2.64583 -2.248958,-2.64583 0,0 1.322917,-1.32292 2.248958,-2.64584 0.926042,-1.32291 1.719792,-3.30729 1.719792,-3.30729"
     style="fill:#f44336;stroke:none;stroke-width:0.264583" />
</svg>
