<?xml version="1.0" encoding="UTF-8" standalone="no"?>
<svg
   xmlns:dc="http://purl.org/dc/elements/1.1/"
   xmlns:cc="http://creativecommons.org/ns#"
   xmlns:rdf="http://www.w3.org/1999/02/22-rdf-syntax-ns#"
   xmlns:svg="http://www.w3.org/2000/svg"
   xmlns="http://www.w3.org/2000/svg"
   xmlns:sodipodi="http://sodipodi.sourceforge.net/DTD/sodipodi-0.dtd"
   xmlns:inkscape="http://www.inkscape.org/namespaces/inkscape"
   width="94.985413mm"
   height="142.61041mm"
   viewBox="0 0 94.985412 142.61041"
   version="1.1"
   id="svg10278"
   sodipodi:docname="diamond-8.svg"
   inkscape:version="1.0.2 (e86c870879, 2021-01-15)">
  <sodipodi:namedview
     pagecolor="#ffffff"
     bordercolor="#666666"
     borderopacity="1"
     objecttolerance="10"
     gridtolerance="10"
     guidetolerance="10"
     inkscape:pageopacity="0"
     inkscape:pageshadow="2"
     inkscape:window-width="2552"
     inkscape:window-height="1375"
     id="namedview5534"
     showgrid="false"
     inkscape:zoom="1.8701299"
     inkscape:cx="38.065969"
     inkscape:cy="269.49999"
     inkscape:window-x="0"
     inkscape:window-y="61"
     inkscape:window-maximized="0"
     inkscape:current-layer="svg10278" />
  <defs
     id="defs10272" />
  <metadata
     id="metadata10275">
    <rdf:RDF>
      <cc:Work
         rdf:about="">
        <dc:format>image/svg+xml</dc:format>
        <dc:type
           rdf:resource="http://purl.org/dc/dcmitype/StillImage" />
        <dc:title />
      </cc:Work>
    </rdf:RDF>
  </metadata>
  <rect
     style="fill:#ffffff;stroke-width:1.3734;stop-color:#000000"
     id="rect26713"
     width="94.985413"
     height="142.61041"
     x="-7.1054274e-15"
     y="0" />
  <path
     style="fill:#f44336;fill-opacity:1;stroke:none;stroke-width:0.264583"
     id="rect3163-5-18-0-7-9"
     d="m 7.8052099,7.8051852 c -1.4657916,0 -2.6458333,1.1800416 -2.6458333,2.6458328 v 1.322917 c 0,0.794703 0.3500437,1.500188 0.9012502,1.984375 -0.5512065,0.484188 -0.9012502,1.189673 -0.9012502,1.984375 v 2.645833 c 0,1.465792 1.1800417,2.645834 2.6458333,2.645834 1.4657916,0 2.6458331,-1.180042 2.6458331,-2.645834 v -2.645833 c 0,-0.794702 -0.350044,-1.500187 -0.9012235,-1.984375 0.5511795,-0.484187 0.9012235,-1.189672 0.9012235,-1.984375 v -1.322917 c 0,-1.4657912 -1.1800415,-2.6458328 -2.6458331,-2.6458328 z m 0,1.3229166 c 0.7328958,0 1.3229167,0.5900209 1.3229167,1.3229162 v 1.322917 c 0,0.732896 -0.5900209,1.322917 -1.3229167,1.322917 -0.7328958,0 -1.3229167,-0.590021 -1.3229167,-1.322917 v -1.322917 c 0,-0.7328953 0.5900209,-1.3229162 1.3229167,-1.3229162 z m 0,5.2916662 c 0.7328958,0 1.3229167,0.590021 1.3229167,1.322917 v 2.645833 c 0,0.732896 -0.5900209,1.322917 -1.3229167,1.322917 -0.7328958,0 -1.3229167,-0.590021 -1.3229167,-1.322917 v -2.645833 c 0,-0.732896 0.5900209,-1.322917 1.3229167,-1.322917 z" />
  <path
     style="fill:#f44336;fill-opacity:1;stroke:none;stroke-width:0.264583"
     id="rect3163-5-18-0-7-4-7"
     d="m 87.180209,134.80519 c -1.465792,0 -2.645833,-1.18004 -2.645833,-2.64583 v -1.32292 c 0,-0.7947 0.350043,-1.50019 0.90125,-1.98438 -0.551207,-0.48418 -0.90125,-1.18967 -0.90125,-1.98438 v -2.64583 c 0,-1.46579 1.180041,-2.64583 2.645833,-2.64583 1.465792,0 2.645833,1.18004 2.645833,2.64583 v 2.64583 c 0,0.79471 -0.350044,1.5002 -0.901224,1.98438 0.55118,0.48419 0.901224,1.18968 0.901224,1.98438 v 1.32292 c 0,1.46579 -1.180041,2.64583 -2.645833,2.64583 z m 0,-1.32292 c 0.732896,0 1.322917,-0.59002 1.322917,-1.32291 v -1.32292 c 0,-0.7329 -0.590021,-1.32292 -1.322917,-1.32292 -0.732896,0 -1.322917,0.59002 -1.322917,1.32292 v 1.32292 c 0,0.73289 0.590021,1.32291 1.322917,1.32291 z m 0,-5.29166 c 0.732896,0 1.322917,-0.59003 1.322917,-1.32293 v -2.64583 c 0,-0.7329 -0.590021,-1.32292 -1.322917,-1.32292 -0.732896,0 -1.322917,0.59002 -1.322917,1.32292 v 2.64583 c 0,0.7329 0.590021,1.32293 1.322917,1.32293 z" />
  <path
     id="path3204-24-1-3"
     d="m 23.68021,11.773962 c 0,0 1.5875,3.96875 3.439583,6.614583 1.852083,2.645833 4.497917,5.291666 4.497917,5.291666 0,0 -2.645834,2.645834 -4.497917,5.291667 -1.852083,2.645833 -3.439583,6.614583 -3.439583,6.614583 0,0 -1.5875,-3.96875 -3.439584,-6.614583 -1.852083,-2.645833 -4.497916,-5.291667 -4.497916,-5.291667 0,0 2.645833,-2.645833 4.497916,-5.291666 1.852084,-2.645833 3.439584,-6.614583 3.439584,-6.614583"
     style="fill:#f44336;stroke:none;stroke-width:0.264583" />
  <path
     id="path3204-24-7-7"
     d="m 71.305209,11.773962 c 0,0 1.5875,3.96875 3.439583,6.614583 1.852084,2.645833 4.497917,5.291666 4.497917,5.291666 0,0 -2.645833,2.645834 -4.497917,5.291667 -1.852083,2.645833 -3.439583,6.614583 -3.439583,6.614583 0,0 -1.5875,-3.96875 -3.439583,-6.614583 -1.852084,-2.645833 -4.497917,-5.291667 -4.497917,-5.291667 0,0 2.645833,-2.645833 4.497917,-5.291666 1.852083,-2.645833 3.439583,-6.614583 3.439583,-6.614583"
     style="fill:#f44336;stroke:none;stroke-width:0.264583" />
  <path
     id="path3204-24-4-2"
     d="m 47.492709,35.586461 c 0,0 1.5875,3.96875 3.439584,6.614584 1.852083,2.645833 4.497916,5.291666 4.497916,5.291666 0,0 -2.645833,2.645833 -4.497916,5.291667 -1.852084,2.645833 -3.439584,6.614583 -3.439584,6.614583 0,0 -1.5875,-3.96875 -3.439583,-6.614583 -1.852083,-2.645834 -4.497916,-5.291667 -4.497916,-5.291667 0,0 2.645833,-2.645833 4.497916,-5.291666 1.852083,-2.645834 3.439583,-6.614584 3.439583,-6.614584"
     style="fill:#f44336;stroke:none;stroke-width:0.264583" />
  <path
     id="path3204-24-6"
     d="m 23.68021,59.398961 c 0,0 1.5875,3.96875 3.439583,6.614583 1.852083,2.645834 4.497917,5.291667 4.497917,5.291667 0,0 -2.645834,2.645833 -4.497917,5.291666 -1.852083,2.645834 -3.439583,6.614584 -3.439583,6.614584 0,0 -1.5875,-3.96875 -3.439584,-6.614584 -1.852083,-2.645833 -4.497916,-5.291666 -4.497916,-5.291666 0,0 2.645833,-2.645833 4.497916,-5.291667 1.852084,-2.645833 3.439584,-6.614583 3.439584,-6.614583"
     style="fill:#f44336;stroke:none;stroke-width:0.264583" />
  <path
     id="path3204-24-0-0"
     d="m 71.305209,59.398961 c 0,0 1.5875,3.96875 3.439583,6.614583 1.852084,2.645834 4.497917,5.291667 4.497917,5.291667 0,0 -2.645833,2.645833 -4.497917,5.291666 -1.852083,2.645834 -3.439583,6.614584 -3.439583,6.614584 0,0 -1.5875,-3.96875 -3.439583,-6.614584 -1.852084,-2.645833 -4.497917,-5.291666 -4.497917,-5.291666 0,0 2.645833,-2.645833 4.497917,-5.291667 1.852083,-2.645833 3.439583,-6.614583 3.439583,-6.614583"
     style="fill:#f44336;stroke:none;stroke-width:0.264583" />
  <path
     id="path3204-24-9-1"
     d="m 47.492709,83.211461 c 0,0 1.5875,3.96875 3.439584,6.614583 1.852083,2.645833 4.497916,5.291667 4.497916,5.291667 0,0 -2.645833,2.645833 -4.497916,5.291669 -1.852084,2.64583 -3.439584,6.61458 -3.439584,6.61458 0,0 -1.5875,-3.96875 -3.439583,-6.61458 -1.852083,-2.645836 -4.497916,-5.291669 -4.497916,-5.291669 0,0 2.645833,-2.645834 4.497916,-5.291667 1.852083,-2.645833 3.439583,-6.614583 3.439583,-6.614583"
     style="fill:#f44336;stroke:none;stroke-width:0.264583" />
  <path
     id="path3204-24-48-6"
     d="m 23.68021,107.02396 c 0,0 1.5875,3.96875 3.439583,6.61458 1.852083,2.64584 4.497917,5.29167 4.497917,5.29167 0,0 -2.645834,2.64583 -4.497917,5.29167 -1.852083,2.64583 -3.439583,6.61459 -3.439583,6.61459 0,0 -1.5875,-3.96876 -3.439584,-6.61459 -1.852083,-2.64584 -4.497916,-5.29167 -4.497916,-5.29167 0,0 2.645833,-2.64583 4.497916,-5.29167 1.852084,-2.64583 3.439584,-6.61458 3.439584,-6.61458"
     style="fill:#f44336;stroke:none;stroke-width:0.264583" />
  <path
     id="path3204-24-8-5"
     d="m 71.305209,107.02396 c 0,0 1.5875,3.96875 3.439583,6.61458 1.852084,2.64584 4.497917,5.29167 4.497917,5.29167 0,0 -2.645833,2.64583 -4.497917,5.29167 -1.852083,2.64583 -3.439583,6.61459 -3.439583,6.61459 0,0 -1.5875,-3.96876 -3.439583,-6.61459 -1.852084,-2.64584 -4.497917,-5.29167 -4.497917,-5.29167 0,0 2.645833,-2.64583 4.497917,-5.29167 1.852083,-2.64583 3.439583,-6.61458 3.439583,-6.61458"
     style="fill:#f44336;stroke:none;stroke-width:0.264583" />
  <path
     id="path3204-24-1-2"
     d="m 7.8052099,23.680211 c 0,0 0.79375,1.984375 1.7197916,3.307292 0.9260415,1.322917 2.2489585,2.645833 2.2489585,2.645833 0,0 -1.322917,1.322917 -2.2489585,2.645834 -0.9260416,1.322916 -1.7197916,3.307291 -1.7197916,3.307291 0,0 -0.79375,-1.984375 -1.7197916,-3.307291 C 5.1593766,30.956253 3.83646,29.633336 3.83646,29.633336 c 0,0 1.3229166,-1.322916 2.2489583,-2.645833 0.9260416,-1.322917 1.7197916,-3.307292 1.7197916,-3.307292"
     style="fill:#f44336;stroke:none;stroke-width:0.264583" />
  <path
     id="path3204-24-1-4"
     d="m 87.180209,107.02396 c 0,0 0.79375,1.98438 1.719792,3.30729 0.926041,1.32292 2.248958,2.64584 2.248958,2.64584 0,0 -1.322917,1.32291 -2.248958,2.64583 -0.926042,1.32292 -1.719792,3.30729 -1.719792,3.30729 0,0 -0.79375,-1.98437 -1.719792,-3.30729 -0.926041,-1.32292 -2.248958,-2.64583 -2.248958,-2.64583 0,0 1.322917,-1.32292 2.248958,-2.64584 0.926042,-1.32291 1.719792,-3.30729 1.719792,-3.30729"
     style="fill:#f44336;stroke:none;stroke-width:0.264583" />
</svg>
