<?xml version="1.0" encoding="UTF-8" standalone="no"?>
<svg
   xmlns:dc="http://purl.org/dc/elements/1.1/"
   xmlns:cc="http://creativecommons.org/ns#"
   xmlns:rdf="http://www.w3.org/1999/02/22-rdf-syntax-ns#"
   xmlns:svg="http://www.w3.org/2000/svg"
   xmlns="http://www.w3.org/2000/svg"
   xmlns:sodipodi="http://sodipodi.sourceforge.net/DTD/sodipodi-0.dtd"
   xmlns:inkscape="http://www.inkscape.org/namespaces/inkscape"
   width="94.985413mm"
   height="142.61041mm"
   viewBox="0 0 94.985412 142.61041"
   version="1.1"
   id="svg10278"
   inkscape:version="1.0.2 (e86c870879, 2021-01-15)"
   sodipodi:docname="heart-8.svg">
  <defs
     id="defs10272">
    <inkscape:path-effect
       effect="spiro"
       id="path-effect17935-89"
       is_visible="true"
       lpeversion="0" />
    <inkscape:path-effect
       effect="spiro"
       id="path-effect17939-8"
       is_visible="true"
       lpeversion="0" />
    <inkscape:path-effect
       effect="spiro"
       id="path-effect17935-8-7"
       is_visible="true"
       lpeversion="0" />
    <inkscape:path-effect
       effect="spiro"
       id="path-effect17939-6-0"
       is_visible="true"
       lpeversion="0" />
  </defs>
  <sodipodi:namedview
     id="base"
     pagecolor="#ffffff"
     bordercolor="#666666"
     borderopacity="1.0"
     inkscape:pageopacity="0.0"
     inkscape:pageshadow="2"
     inkscape:zoom="1.979899"
     inkscape:cx="-28.493071"
     inkscape:cy="253.65603"
     inkscape:document-units="mm"
     inkscape:current-layer="layer1"
     inkscape:document-rotation="0"
     showgrid="false"
     fit-margin-top="0"
     fit-margin-left="0"
     fit-margin-right="0"
     fit-margin-bottom="0"
     inkscape:window-width="2552"
     inkscape:window-height="1375"
     inkscape:window-x="0"
     inkscape:window-y="61"
     inkscape:window-maximized="1" />
  <metadata
     id="metadata10275">
    <rdf:RDF>
      <cc:Work
         rdf:about="">
        <dc:format>image/svg+xml</dc:format>
        <dc:type
           rdf:resource="http://purl.org/dc/dcmitype/StillImage" />
        <dc:title />
      </cc:Work>
    </rdf:RDF>
  </metadata>
  <g
     inkscape:label="Layer 1"
     inkscape:groupmode="layer"
     id="layer1"
     transform="translate(-102.18586,-26.212644)">
    <rect
       style="fill:#ffffff;stroke-width:1.3734;stop-color:#000000"
       id="rect26713"
       width="94.985413"
       height="142.61041"
       x="102.18586"
       y="26.212645" />
    <path
       style="fill:#f44336;fill-opacity:1;stroke:none;stroke-width:0.264583"
       id="rect3163-5-18-0-7-3"
       d="m 109.99107,34.017825 c -1.46579,0 -2.64583,1.180042 -2.64583,2.645833 v 1.322917 c 0,0.794703 0.35004,1.500188 0.90125,1.984375 -0.55121,0.484188 -0.90125,1.189673 -0.90125,1.984375 v 2.645833 c 0,1.465792 1.18004,2.645834 2.64583,2.645834 1.46579,0 2.64583,-1.180042 2.64583,-2.645834 v -2.645833 c 0,-0.794702 -0.35004,-1.500187 -0.90122,-1.984375 0.55118,-0.484187 0.90122,-1.189672 0.90122,-1.984375 v -1.322917 c 0,-1.465791 -1.18004,-2.645833 -2.64583,-2.645833 z m 0,1.322917 c 0.7329,0 1.32292,0.590021 1.32292,1.322916 v 1.322917 c 0,0.732896 -0.59002,1.322917 -1.32292,1.322917 -0.7329,0 -1.32292,-0.590021 -1.32292,-1.322917 v -1.322917 c 0,-0.732895 0.59002,-1.322916 1.32292,-1.322916 z m 0,5.291666 c 0.7329,0 1.32292,0.590021 1.32292,1.322917 v 2.645833 c 0,0.732896 -0.59002,1.322917 -1.32292,1.322917 -0.7329,0 -1.32292,-0.590021 -1.32292,-1.322917 v -2.645833 c 0,-0.732896 0.59002,-1.322917 1.32292,-1.322917 z"
       inkscape:connector-curvature="0" />
    <path
       style="fill:#f44336;fill-opacity:1;stroke:none;stroke-width:0.264583"
       id="rect3163-5-18-0-7-4-4"
       d="m 189.36607,161.01783 c -1.46579,0 -2.64583,-1.18004 -2.64583,-2.64583 v -1.32292 c 0,-0.7947 0.35004,-1.50019 0.90125,-1.98438 -0.55121,-0.48418 -0.90125,-1.18967 -0.90125,-1.98438 v -2.64583 c 0,-1.46579 1.18004,-2.64583 2.64583,-2.64583 1.46579,0 2.64583,1.18004 2.64583,2.64583 v 2.64583 c 0,0.79471 -0.35004,1.5002 -0.90122,1.98438 0.55118,0.48419 0.90122,1.18968 0.90122,1.98438 v 1.32292 c 0,1.46579 -1.18004,2.64583 -2.64583,2.64583 z m 0,-1.32292 c 0.73289,0 1.32292,-0.59002 1.32292,-1.32291 v -1.32292 c 0,-0.7329 -0.59003,-1.32292 -1.32292,-1.32292 -0.7329,0 -1.32292,0.59002 -1.32292,1.32292 v 1.32292 c 0,0.73289 0.59002,1.32291 1.32292,1.32291 z m 0,-5.29166 c 0.73289,0 1.32292,-0.59003 1.32292,-1.32293 v -2.64583 c 0,-0.7329 -0.59003,-1.32292 -1.32292,-1.32292 -0.7329,0 -1.32292,0.59002 -1.32292,1.32292 v 2.64583 c 0,0.7329 0.59002,1.32293 1.32292,1.32293 z"
       inkscape:connector-curvature="0" />
    <path
       style="fill:#f44336;fill-opacity:1;stroke:none;stroke-width:0.264583"
       d="m 189.23378,142.7616 c 0,1.46125 -0.75615,2.38125 -1.85209,2.38125 -1.09594,0 -1.98437,-1.18458 -1.98437,-2.64583 0.005,-0.12642 0.002,-0.25019 0,-0.37207 0,-0.96553 0.35412,-1.90194 0.66146,-2.77813 0.31605,-0.90103 0.77173,-1.69078 1.19889,-2.497 0.66162,-1.24876 2.1084,-3.61322 2.1084,-3.61322 0,0 1.44678,2.36446 2.1084,3.61322 0.42716,0.80622 0.88284,1.59597 1.19889,2.497 0.30733,0.87619 0.66146,1.8126 0.66146,2.77813 -0.004,0.1289 -0.002,0.25328 0,0.37207 0,1.46125 -0.88844,2.64583 -1.98438,2.64583 -1.09594,0 -1.85208,-0.92 -1.85208,-2.38125 0,-0.26458 -0.26458,-0.26458 -0.26458,0 z"
       id="path3126-1-7-9"
       inkscape:connector-curvature="0"
       sodipodi:nodetypes="csccsscssccscc" />
    <path
       style="fill:#f44336;fill-opacity:1;stroke:none;stroke-width:0.264583"
       d="m 125.60149,42.749102 c 0,-2.922506 -1.51229,-4.7625 -3.70417,-4.7625 -2.19188,0 -3.96875,2.369161 -3.96875,5.291666 0.009,0.252833 0.005,0.500378 0,0.744141 0,1.931056 0.70825,3.803872 1.32292,5.55625 0.63209,1.802066 1.54346,3.381552 2.39778,4.99401 1.32324,2.497508 4.2168,7.226432 4.2168,7.226432 0,0 2.89355,-4.728924 4.2168,-7.226432 0.85432,-1.612458 1.76569,-3.191944 2.39778,-4.99401 0.61467,-1.752378 1.32292,-3.625194 1.32292,-5.55625 -0.008,-0.25781 -0.005,-0.506577 0,-0.744141 0,-2.922505 -1.77687,-5.291666 -3.96875,-5.291666 -2.19188,0 -3.70417,1.839994 -3.70417,4.7625 0,0.529166 -0.52916,0.529166 -0.52916,0 z"
       id="path3126-65"
       inkscape:connector-curvature="0"
       sodipodi:nodetypes="csccsscssccscc" />
    <path
       style="fill:#f44336;fill-opacity:1;stroke:none;stroke-width:0.264583"
       d="m 173.22649,42.749102 c 0,-2.922506 -1.51229,-4.7625 -3.70417,-4.7625 -2.19188,0 -3.96875,2.369161 -3.96875,5.291666 0.009,0.252833 0.005,0.500378 0,0.744141 0,1.931056 0.70825,3.803872 1.32292,5.55625 0.63209,1.802066 1.54346,3.381552 2.39778,4.99401 1.32324,2.497508 4.2168,7.226432 4.2168,7.226432 0,0 2.89355,-4.728924 4.2168,-7.226432 0.85432,-1.612458 1.76568,-3.191944 2.39778,-4.99401 0.61467,-1.752378 1.32292,-3.625194 1.32292,-5.55625 -0.008,-0.25781 -0.005,-0.506577 0,-0.744141 0,-2.922505 -1.77687,-5.291666 -3.96875,-5.291666 -2.19188,0 -3.70417,1.839994 -3.70417,4.7625 0,0.529166 -0.52916,0.529166 -0.52916,0 z"
       id="path3126-4-1"
       inkscape:connector-curvature="0"
       sodipodi:nodetypes="csccsscssccscc" />
    <path
       style="fill:#f44336;fill-opacity:1;stroke:none;stroke-width:0.264583"
       d="m 149.41399,66.561601 c 0,-2.922505 -1.51229,-4.7625 -3.70417,-4.7625 -2.19188,0 -3.96875,2.369161 -3.96875,5.291667 0.009,0.252833 0.005,0.500377 0,0.744141 0,1.931056 0.70825,3.803872 1.32292,5.556249 0.63209,1.802067 1.54346,3.381553 2.39778,4.994011 1.32324,2.497508 4.2168,7.226432 4.2168,7.226432 0,0 2.89355,-4.728924 4.2168,-7.226432 0.85432,-1.612458 1.76569,-3.191944 2.39778,-4.994011 0.61467,-1.752377 1.32292,-3.625193 1.32292,-5.556249 -0.008,-0.25781 -0.005,-0.506577 0,-0.744141 0,-2.922506 -1.77687,-5.291667 -3.96875,-5.291667 -2.19188,0 -3.70417,1.839995 -3.70417,4.7625 0,0.529167 -0.52916,0.529167 -0.52916,0 z"
       id="path3126-0-0"
       inkscape:connector-curvature="0"
       sodipodi:nodetypes="csccsscssccscc" />
    <path
       style="fill:#f44336;fill-opacity:1;stroke:none;stroke-width:0.264583"
       d="m 125.60149,90.374101 c 0,-2.922506 -1.51229,-4.7625 -3.70417,-4.7625 -2.19188,0 -3.96875,2.369161 -3.96875,5.291667 0.009,0.252833 0.005,0.500377 0,0.74414 0,1.931056 0.70825,3.803872 1.32292,5.55625 0.63209,1.802067 1.54346,3.381552 2.39778,4.994012 1.32324,2.49751 4.2168,7.22643 4.2168,7.22643 0,0 2.89355,-4.72892 4.2168,-7.22643 0.85432,-1.61246 1.76569,-3.191945 2.39778,-4.994012 0.61467,-1.752378 1.32292,-3.625194 1.32292,-5.55625 -0.008,-0.25781 -0.005,-0.506576 0,-0.74414 0,-2.922506 -1.77687,-5.291667 -3.96875,-5.291667 -2.19188,0 -3.70417,1.839994 -3.70417,4.7625 0,0.529167 -0.52916,0.529167 -0.52916,0 z"
       id="path3126-9-9"
       inkscape:connector-curvature="0"
       sodipodi:nodetypes="csccsscssccscc" />
    <path
       style="fill:#f44336;fill-opacity:1;stroke:none;stroke-width:0.264583"
       d="m 173.22649,90.374101 c 0,-2.922506 -1.51229,-4.7625 -3.70417,-4.7625 -2.19188,0 -3.96875,2.369161 -3.96875,5.291667 0.009,0.252833 0.005,0.500377 0,0.74414 0,1.931056 0.70825,3.803872 1.32292,5.55625 0.63209,1.802067 1.54346,3.381552 2.39778,4.994012 1.32324,2.49751 4.2168,7.22643 4.2168,7.22643 0,0 2.89355,-4.72892 4.2168,-7.22643 0.85432,-1.61246 1.76568,-3.191945 2.39778,-4.994012 0.61467,-1.752378 1.32292,-3.625194 1.32292,-5.55625 -0.008,-0.25781 -0.005,-0.506576 0,-0.74414 0,-2.922506 -1.77687,-5.291667 -3.96875,-5.291667 -2.19188,0 -3.70417,1.839994 -3.70417,4.7625 0,0.529167 -0.52916,0.529167 -0.52916,0 z"
       id="path3126-48-96"
       inkscape:connector-curvature="0"
       sodipodi:nodetypes="csccsscssccscc" />
    <path
       style="fill:#f44336;fill-opacity:1;stroke:none;stroke-width:0.264583"
       d="m 149.41399,128.4741 c 0,2.92251 -1.51229,4.7625 -3.70417,4.7625 -2.19188,0 -3.96875,-2.36916 -3.96875,-5.29167 0.009,-0.25283 0.005,-0.50037 0,-0.74414 0,-1.93105 0.70825,-3.80387 1.32292,-5.55625 0.63209,-1.80206 1.54346,-3.38155 2.39778,-4.99401 1.32324,-2.4975 4.2168,-7.22643 4.2168,-7.22643 0,0 2.89355,4.72893 4.2168,7.22643 0.85432,1.61246 1.76569,3.19195 2.39778,4.99401 0.61467,1.75238 1.32292,3.6252 1.32292,5.55625 -0.008,0.25781 -0.005,0.50658 0,0.74414 0,2.92251 -1.77687,5.29167 -3.96875,5.29167 -2.19188,0 -3.70417,-1.83999 -3.70417,-4.7625 0,-0.52917 -0.52916,-0.52917 -0.52916,0 z"
       id="path3126-8-83"
       inkscape:connector-curvature="0"
       sodipodi:nodetypes="csccsscssccscc" />
    <path
       style="fill:#f44336;fill-opacity:1;stroke:none;stroke-width:0.264583"
       d="m 125.60149,152.28661 c 0,2.9225 -1.51229,4.7625 -3.70417,4.7625 -2.19188,0 -3.96875,-2.36917 -3.96875,-5.29167 0.009,-0.25283 0.005,-0.50038 0,-0.74414 0,-1.93106 0.70825,-3.80387 1.32292,-5.55625 0.63209,-1.80207 1.54346,-3.38155 2.39778,-4.99401 1.32324,-2.49751 4.2168,-7.22644 4.2168,-7.22644 0,0 2.89355,4.72893 4.2168,7.22644 0.85432,1.61246 1.76569,3.19194 2.39778,4.99401 0.61467,1.75238 1.32292,3.62519 1.32292,5.55625 -0.008,0.25781 -0.005,0.50657 0,0.74414 0,2.9225 -1.77687,5.29167 -3.96875,5.29167 -2.19188,0 -3.70417,-1.84 -3.70417,-4.7625 0,-0.52917 -0.52916,-0.52917 -0.52916,0 z"
       id="path3126-24"
       inkscape:connector-curvature="0"
       sodipodi:nodetypes="csccsscssccscc" />
    <path
       style="fill:#f44336;fill-opacity:1;stroke:none;stroke-width:0.264583"
       d="m 173.22649,152.28661 c 0,2.9225 -1.51229,4.7625 -3.70417,4.7625 -2.19188,0 -3.96875,-2.36917 -3.96875,-5.29167 0.009,-0.25283 0.005,-0.50038 0,-0.74414 0,-1.93106 0.70825,-3.80387 1.32292,-5.55625 0.63209,-1.80207 1.54346,-3.38155 2.39778,-4.99401 1.32324,-2.49751 4.2168,-7.22644 4.2168,-7.22644 0,0 2.89355,4.72893 4.2168,7.22644 0.85432,1.61246 1.76568,3.19194 2.39778,4.99401 0.61467,1.75238 1.32292,3.62519 1.32292,5.55625 -0.008,0.25781 -0.005,0.50657 0,0.74414 0,2.9225 -1.77687,5.29167 -3.96875,5.29167 -2.19188,0 -3.70417,-1.84 -3.70417,-4.7625 0,-0.52917 -0.52916,-0.52917 -0.52916,0 z"
       id="path3126-5"
       inkscape:connector-curvature="0"
       sodipodi:nodetypes="csccsscssccscc" />
    <path
       style="fill:#f44336;fill-opacity:1;stroke:none;stroke-width:0.264583"
       d="m 109.85878,52.274101 c 0,-1.461254 -0.75615,-2.38125 -1.85209,-2.38125 -1.09593,0 -1.98437,1.18458 -1.98437,2.645834 0.005,0.126418 0.002,0.250187 0,0.37207 0,0.965528 0.35412,1.901936 0.66146,2.778125 0.31605,0.901033 0.77173,1.690777 1.19889,2.497005 0.66162,1.248754 2.1084,3.613216 2.1084,3.613216 0,0 1.44678,-2.364462 2.1084,-3.613216 0.42716,-0.806228 0.88284,-1.595972 1.19889,-2.497005 0.30733,-0.876189 0.66146,-1.812597 0.66146,-2.778125 -0.004,-0.128905 -0.002,-0.253288 0,-0.37207 0,-1.461254 -0.88844,-2.645834 -1.98438,-2.645834 -1.09593,0 -1.85208,0.919996 -1.85208,2.38125 0,0.264584 -0.26458,0.264584 -0.26458,0 z"
       id="path3126-1-48"
       inkscape:connector-curvature="0"
       sodipodi:nodetypes="csccsscssccscc" />
  </g>
</svg>
