<?xml version="1.0" encoding="UTF-8" standalone="no"?>
<svg
   xmlns:dc="http://purl.org/dc/elements/1.1/"
   xmlns:cc="http://creativecommons.org/ns#"
   xmlns:rdf="http://www.w3.org/1999/02/22-rdf-syntax-ns#"
   xmlns:svg="http://www.w3.org/2000/svg"
   xmlns="http://www.w3.org/2000/svg"
   xmlns:sodipodi="http://sodipodi.sourceforge.net/DTD/sodipodi-0.dtd"
   xmlns:inkscape="http://www.inkscape.org/namespaces/inkscape"
   width="94.985413mm"
   height="142.61041mm"
   viewBox="0 0 94.985412 142.61041"
   version="1.1"
   id="svg10278"
   sodipodi:docname="heart-9.svg"
   inkscape:version="1.0.2 (e86c870879, 2021-01-15)">
  <sodipodi:namedview
     pagecolor="#ffffff"
     bordercolor="#666666"
     borderopacity="1"
     objecttolerance="10"
     gridtolerance="10"
     guidetolerance="10"
     inkscape:pageopacity="0"
     inkscape:pageshadow="2"
     inkscape:window-width="2552"
     inkscape:window-height="1375"
     id="namedview6785"
     showgrid="false"
     inkscape:zoom="1.8701299"
     inkscape:cx="38.065969"
     inkscape:cy="269.49999"
     inkscape:window-x="0"
     inkscape:window-y="61"
     inkscape:window-maximized="0"
     inkscape:current-layer="svg10278" />
  <defs
     id="defs10272" />
  <metadata
     id="metadata10275">
    <rdf:RDF>
      <cc:Work
         rdf:about="">
        <dc:format>image/svg+xml</dc:format>
        <dc:type
           rdf:resource="http://purl.org/dc/dcmitype/StillImage" />
        <dc:title />
      </cc:Work>
    </rdf:RDF>
  </metadata>
  <rect
     style="fill:#ffffff;stroke-width:1.3734;stop-color:#000000"
     id="rect26713"
     width="94.985413"
     height="142.61041"
     x="-7.1054274e-15"
     y="0" />
  <path
     style="fill:#f44336;fill-opacity:1;stroke:none;stroke-width:0.264583"
     id="rect3163-7-1-7-3-0-78-0"
     d="m 7.8052099,21.034352 c 1.4657916,0 2.6458331,-1.180042 2.6458331,-2.645834 v -5.291666 -2.645834 c 0,-1.4657912 -1.1800415,-2.6458328 -2.6458331,-2.6458328 -1.4657916,0 -2.6458333,1.1800416 -2.6458333,2.6458328 v 2.645834 c 0,1.465791 1.1800417,2.645833 2.6458333,2.645833 0.4822296,0 0.934376,-0.131921 1.3229167,-0.355547 v 3.00138 c 0,0.732896 -0.5900209,1.322917 -1.3229167,1.322917 -0.7328958,0 -1.3229167,-0.590021 -1.3229167,-1.322917 V 18.123935 H 5.1593766 v 0.264583 c 0,1.465792 1.1800417,2.645834 2.6458333,2.645834 z m 0,-6.614584 c -0.7328958,0 -1.3229167,-0.59002 -1.3229167,-1.322916 v -2.645834 c 0,-0.7328953 0.5900209,-1.3229162 1.3229167,-1.3229162 0.7328958,0 1.3229167,0.5900209 1.3229167,1.3229162 v 2.645834 c 0,0.732896 -0.5900209,1.322916 -1.3229167,1.322916 z" />
  <path
     style="fill:#f44336;fill-opacity:1;stroke:none;stroke-width:0.264583"
     id="rect3163-7-1-7-3-0-78-1-2"
     d="m 87.180209,121.57602 c -1.465792,0 -2.645833,1.18004 -2.645833,2.64583 v 5.29167 2.64584 c 0,1.46579 1.180041,2.64583 2.645833,2.64583 1.465792,0 2.645833,-1.18004 2.645833,-2.64583 v -2.64584 c 0,-1.46579 -1.180041,-2.64584 -2.645833,-2.64584 -0.48223,0 -0.934376,0.13192 -1.322917,0.35555 v -3.00138 c 0,-0.7329 0.590021,-1.32292 1.322917,-1.32292 0.732896,0 1.322917,0.59002 1.322917,1.32292 v 0.26458 h 1.322916 v -0.26458 c 0,-1.46579 -1.180041,-2.64583 -2.645833,-2.64583 z m 0,6.61459 c 0.732896,0 1.322917,0.59002 1.322917,1.32291 v 2.64584 c 0,0.73289 -0.590021,1.32291 -1.322917,1.32291 -0.732896,0 -1.322917,-0.59002 -1.322917,-1.32291 v -2.64584 c 0,-0.73289 0.590021,-1.32291 1.322917,-1.32291 z" />
  <path
     style="fill:#f44336;fill-opacity:1;stroke:none;stroke-width:0.264583"
     d="m 23.415626,16.536462 c 0,-2.922506 -1.512287,-4.7625 -3.704166,-4.7625 -2.19188,0 -3.96875,2.369161 -3.96875,5.291666 0.0092,0.252833 0.0048,0.500378 0,0.744141 0,1.931056 0.70825,3.803872 1.322916,5.55625 0.632098,1.802066 1.543466,3.381552 2.397787,4.99401 1.323242,2.497508 4.216797,7.226432 4.216797,7.226432 0,0 2.893554,-4.728924 4.216797,-7.226432 0.854321,-1.612458 1.765688,-3.191944 2.397786,-4.99401 0.614667,-1.752378 1.322917,-3.625194 1.322917,-5.55625 -0.0075,-0.25781 -0.0049,-0.506577 0,-0.744141 0,-2.922505 -1.776871,-5.291666 -3.96875,-5.291666 -2.19188,0 -3.704167,1.839994 -3.704167,4.7625 0,0.529166 -0.529167,0.529166 -0.529167,0 z"
     id="path3126-86" />
  <path
     style="fill:#f44336;fill-opacity:1;stroke:none;stroke-width:0.264583"
     d="m 71.040626,16.536462 c 0,-2.922506 -1.512287,-4.7625 -3.704167,-4.7625 -2.19188,0 -3.96875,2.369161 -3.96875,5.291666 0.0092,0.252833 0.0048,0.500378 0,0.744141 0,1.931056 0.70825,3.803872 1.322917,5.55625 0.632097,1.802066 1.543465,3.381552 2.397786,4.99401 1.323242,2.497508 4.216797,7.226432 4.216797,7.226432 0,0 2.893555,-4.728924 4.216797,-7.226432 0.854321,-1.612458 1.765689,-3.191944 2.397786,-4.99401 0.614667,-1.752378 1.322917,-3.625194 1.322917,-5.55625 -0.0075,-0.25781 -0.0049,-0.506577 0,-0.744141 0,-2.922505 -1.77687,-5.291666 -3.96875,-5.291666 -2.19188,0 -3.704167,1.839994 -3.704167,4.7625 0,0.529166 -0.529166,0.529166 -0.529166,0 z"
     id="path3126-17" />
  <path
     style="fill:#f44336;fill-opacity:1;stroke:none;stroke-width:0.264583"
     d="m 23.415626,48.286461 c 0,-2.922505 -1.512287,-4.7625 -3.704166,-4.7625 -2.19188,0 -3.96875,2.369161 -3.96875,5.291667 0.0092,0.252833 0.0048,0.500377 0,0.74414 0,1.931057 0.70825,3.803873 1.322916,5.55625 0.632098,1.802067 1.543466,3.381553 2.397787,4.994011 1.323242,2.497508 4.216797,7.226432 4.216797,7.226432 0,0 2.893554,-4.728924 4.216797,-7.226432 0.854321,-1.612458 1.765688,-3.191944 2.397786,-4.994011 0.614667,-1.752377 1.322917,-3.625193 1.322917,-5.55625 -0.0075,-0.25781 -0.0049,-0.506576 0,-0.74414 0,-2.922506 -1.776871,-5.291667 -3.96875,-5.291667 -2.19188,0 -3.704167,1.839995 -3.704167,4.7625 0,0.529167 -0.529167,0.529167 -0.529167,0 z"
     id="path3126-40" />
  <path
     style="fill:#f44336;fill-opacity:1;stroke:none;stroke-width:0.264583"
     d="m 71.040626,48.286461 c 0,-2.922505 -1.512287,-4.7625 -3.704167,-4.7625 -2.19188,0 -3.96875,2.369161 -3.96875,5.291667 0.0092,0.252833 0.0048,0.500377 0,0.74414 0,1.931057 0.70825,3.803873 1.322917,5.55625 0.632097,1.802067 1.543465,3.381553 2.397786,4.994011 1.323242,2.497508 4.216797,7.226432 4.216797,7.226432 0,0 2.893555,-4.728924 4.216797,-7.226432 0.854321,-1.612458 1.765689,-3.191944 2.397786,-4.994011 0.614667,-1.752377 1.322917,-3.625193 1.322917,-5.55625 -0.0075,-0.25781 -0.0049,-0.506576 0,-0.74414 0,-2.922506 -1.77687,-5.291667 -3.96875,-5.291667 -2.19188,0 -3.704167,1.839995 -3.704167,4.7625 0,0.529167 -0.529166,0.529167 -0.529166,0 z"
     id="path3126-94" />
  <path
     style="fill:#f44336;fill-opacity:1;stroke:none;stroke-width:0.264583"
     d="m 47.228126,64.161461 c 0,-2.922506 -1.512287,-4.7625 -3.704167,-4.7625 -2.191879,0 -3.968749,2.369161 -3.968749,5.291667 0.0092,0.252833 0.0048,0.500377 0,0.74414 0,1.931056 0.708249,3.803872 1.322916,5.55625 0.632098,1.802067 1.543466,3.381552 2.397787,4.99401 1.323242,2.497508 4.216796,7.226433 4.216796,7.226433 0,0 2.893555,-4.728925 4.216797,-7.226433 0.854321,-1.612458 1.765689,-3.191943 2.397787,-4.99401 0.614666,-1.752378 1.322916,-3.625194 1.322916,-5.55625 -0.0075,-0.25781 -0.0049,-0.506576 0,-0.74414 0,-2.922506 -1.77687,-5.291667 -3.96875,-5.291667 -2.191879,0 -3.704166,1.839994 -3.704166,4.7625 0,0.529167 -0.529167,0.529167 -0.529167,0 z"
     id="path3126-8" />
  <path
     style="fill:#f44336;fill-opacity:1;stroke:none;stroke-width:0.264583"
     d="m 23.415626,94.323961 c 0,2.922505 -1.512287,4.7625 -3.704166,4.7625 -2.19188,0 -3.96875,-2.369162 -3.96875,-5.291667 0.0092,-0.252833 0.0048,-0.500377 0,-0.744141 0,-1.931056 0.70825,-3.803872 1.322916,-5.55625 0.632098,-1.802066 1.543466,-3.381552 2.397787,-4.99401 1.323242,-2.497508 4.216797,-7.226432 4.216797,-7.226432 0,0 2.893554,4.728924 4.216797,7.226432 0.854321,1.612458 1.765688,3.191944 2.397786,4.99401 0.614667,1.752378 1.322917,3.625194 1.322917,5.55625 -0.0075,0.25781 -0.0049,0.506577 0,0.744141 0,2.922505 -1.776871,5.291667 -3.96875,5.291667 -2.19188,0 -3.704167,-1.839995 -3.704167,-4.7625 0,-0.529167 -0.529167,-0.529167 -0.529167,0 z"
     id="path3126-82-0" />
  <path
     style="fill:#f44336;fill-opacity:1;stroke:none;stroke-width:0.264583"
     d="m 71.040626,94.323961 c 0,2.922505 -1.512287,4.7625 -3.704167,4.7625 -2.19188,0 -3.96875,-2.369162 -3.96875,-5.291667 0.0092,-0.252833 0.0048,-0.500377 0,-0.744141 0,-1.931056 0.70825,-3.803872 1.322917,-5.55625 0.632097,-1.802066 1.543465,-3.381552 2.397786,-4.99401 1.323242,-2.497508 4.216797,-7.226432 4.216797,-7.226432 0,0 2.893555,4.728924 4.216797,7.226432 0.854321,1.612458 1.765689,3.191944 2.397786,4.99401 0.614667,1.752378 1.322917,3.625194 1.322917,5.55625 -0.0075,0.25781 -0.0049,0.506577 0,0.744141 0,2.922505 -1.77687,5.291667 -3.96875,5.291667 -2.19188,0 -3.704167,-1.839995 -3.704167,-4.7625 0,-0.529167 -0.529166,-0.529167 -0.529166,0 z"
     id="path3126-4" />
  <path
     style="fill:#f44336;fill-opacity:1;stroke:none;stroke-width:0.264583"
     d="m 23.415626,126.07397 c 0,2.9225 -1.512287,4.7625 -3.704166,4.7625 -2.19188,0 -3.96875,-2.36917 -3.96875,-5.29167 0.0092,-0.25283 0.0048,-0.50038 0,-0.74414 0,-1.93106 0.70825,-3.80387 1.322916,-5.55625 0.632098,-1.80207 1.543466,-3.38155 2.397787,-4.99401 1.323242,-2.49751 4.216797,-7.22644 4.216797,-7.22644 0,0 2.893554,4.72893 4.216797,7.22644 0.854321,1.61246 1.765688,3.19194 2.397786,4.99401 0.614667,1.75238 1.322917,3.62519 1.322917,5.55625 -0.0075,0.25781 -0.0049,0.50657 0,0.74414 0,2.9225 -1.776871,5.29167 -3.96875,5.29167 -2.19188,0 -3.704167,-1.84 -3.704167,-4.7625 0,-0.52917 -0.529167,-0.52917 -0.529167,0 z"
     id="path3126-55" />
  <path
     style="fill:#f44336;fill-opacity:1;stroke:none;stroke-width:0.264583"
     d="m 71.040626,126.07397 c 0,2.9225 -1.512287,4.7625 -3.704167,4.7625 -2.19188,0 -3.96875,-2.36917 -3.96875,-5.29167 0.0092,-0.25283 0.0048,-0.50038 0,-0.74414 0,-1.93106 0.70825,-3.80387 1.322917,-5.55625 0.632097,-1.80207 1.543465,-3.38155 2.397786,-4.99401 1.323242,-2.49751 4.216797,-7.22644 4.216797,-7.22644 0,0 2.893555,4.72893 4.216797,7.22644 0.854321,1.61246 1.765689,3.19194 2.397786,4.99401 0.614667,1.75238 1.322917,3.62519 1.322917,5.55625 -0.0075,0.25781 -0.0049,0.50657 0,0.74414 0,2.9225 -1.77687,5.29167 -3.96875,5.29167 -2.19188,0 -3.704167,-1.84 -3.704167,-4.7625 0,-0.52917 -0.529166,-0.52917 -0.529166,0 z"
     id="path3126-1-2" />
  <path
     style="fill:#f44336;fill-opacity:1;stroke:none;stroke-width:0.264583"
     d="m 7.6729182,26.061461 c 0,-1.461254 -0.7561434,-2.38125 -1.8520833,-2.38125 -1.0959398,0 -1.9843749,1.18458 -1.9843749,2.645834 0.00462,0.126418 0.00241,0.250187 0,0.37207 0,0.965528 0.3541249,1.901936 0.6614583,2.778125 0.3160487,0.901033 0.7717327,1.690777 1.1988932,2.497005 0.661621,1.248754 2.1083984,3.613216 2.1083984,3.613216 0,0 1.4467774,-2.364462 2.1083984,-3.613216 0.4271607,-0.806228 0.8828447,-1.595972 1.1988937,-2.497005 0.307333,-0.876189 0.661458,-1.812597 0.661458,-2.778125 -0.0038,-0.128905 -0.0025,-0.253288 0,-0.37207 0,-1.461254 -0.888435,-2.645834 -1.9843751,-2.645834 -1.0959399,0 -1.8520833,0.919996 -1.8520833,2.38125 0,0.264584 -0.2645834,0.264584 -0.2645834,0 z"
     id="path3126-1-7-4" />
  <path
     style="fill:#f44336;fill-opacity:1;stroke:none;stroke-width:0.264583"
     d="m 87.047917,116.54896 c 0,1.46125 -0.756145,2.38125 -1.852083,2.38125 -1.095941,0 -1.984375,-1.18458 -1.984375,-2.64583 0.0046,-0.12642 0.0024,-0.25019 0,-0.37207 0,-0.96553 0.354124,-1.90194 0.661458,-2.77813 0.31605,-0.90103 0.771732,-1.69078 1.198893,-2.497 0.66162,-1.24876 2.108399,-3.61322 2.108399,-3.61322 0,0 1.446779,2.36446 2.108398,3.61322 0.42716,0.80622 0.882843,1.59597 1.198894,2.497 0.307332,0.87619 0.661458,1.8126 0.661458,2.77813 -0.0038,0.1289 -0.0024,0.25328 0,0.37207 0,1.46125 -0.888437,2.64583 -1.984375,2.64583 -1.095941,0 -1.852083,-0.92 -1.852083,-2.38125 0,-0.26458 -0.264584,-0.26458 -0.264584,0 z"
     id="path3126-1-1" />
</svg>
