<?xml version="1.0" encoding="UTF-8" standalone="no"?>
<svg
   xmlns:dc="http://purl.org/dc/elements/1.1/"
   xmlns:cc="http://creativecommons.org/ns#"
   xmlns:rdf="http://www.w3.org/1999/02/22-rdf-syntax-ns#"
   xmlns:svg="http://www.w3.org/2000/svg"
   xmlns="http://www.w3.org/2000/svg"
   width="94.985413mm"
   height="142.61041mm"
   viewBox="0 0 94.985412 142.61041"
   version="1.1"
   id="svg10278">
  <defs
     id="defs10272" />
  <metadata
     id="metadata10275">
    <rdf:RDF>
      <cc:Work
         rdf:about="">
        <dc:format>image/svg+xml</dc:format>
        <dc:type
           rdf:resource="http://purl.org/dc/dcmitype/StillImage" />
        <dc:title></dc:title>
      </cc:Work>
    </rdf:RDF>
  </metadata>
  <g
     id="layer1"
     transform="translate(-102.18586,-26.212644)">
    <g
       transform="matrix(0.26458333,0,0,0.26458333,102.05357,-109.48214)"
       id="g3089"
       style="stroke:none">
      <rect
         rx="29.944447"
         ry="29.944447"
         y="512.86218"
         x="0.5"
         height="539"
         width="359"
         id="rect6472-68"
         style="fill:#ffffff;stroke:none;stroke-width:1" />
      <path
         style="fill:#000000;fill-opacity:1;stroke:none"
         id="rect3163-7-1-7-3-0-78"
         d="m 30,592.36208 c 5.54,0 10,-4.46 10,-10 v -20 -10 c 0,-5.54 -4.46,-10 -10,-10 -5.54,0 -10,4.46 -10,10 v 10 c 0,5.54 4.46,10 10,10 1.8226,0 3.5315,-0.4986 5,-1.3438 v 11.3438 c 0,2.77 -2.23,5 -5,5 -2.77,0 -5,-2.23 -5,-5 v -1 h -5 v 1 c 0,5.54 4.46,10 10,10 z m 0,-25 c -2.77,0 -5,-2.23 -5,-5 v -10 c 0,-2.77 2.23,-5 5,-5 2.77,0 5,2.23 5,5 v 10 c 0,2.77 -2.23,5 -5,5 z" />
      <path
         style="fill:#000000;fill-opacity:1;stroke:none"
         id="rect3163-7-1-7-3-0-78-1"
         d="m 330,972.36208 c -5.54,0 -10,4.46 -10,10 v 20.00002 10 c 0,5.54 4.46,10 10,10 5.54,0 10,-4.46 10,-10 v -10 c 0,-5.54 -4.46,-10.00002 -10,-10.00002 -1.8226,0 -3.5315,0.4986 -5,1.3438 v -11.3438 c 0,-2.77 2.23,-5 5,-5 2.77,0 5,2.23 5,5 v 1 h 5 v -1 c 0,-5.54 -4.46,-10 -10,-10 z m 0,25.00002 c 2.77,0 5,2.23 5,5 v 10 c 0,2.77 -2.23,5 -5,5 -2.77,0 -5,-2.23 -5,-5 v -10 c 0,-2.77 2.23,-5 5,-5 z" />
      <path
         style="fill:#000000;fill-opacity:1;stroke:none"
         d="m 32.5,630.36218 c 0.5,2 2.5,7 6,7 4.5,0 6.5,-4 6.5,-9 0,-3.5 -1.289475,-5.80614 -2.5,-8.5 -1.28894,-2.86836 -3.18966,-5.4287 -5,-8 -2.32265,-3.29895 -7.5,-9.5 -7.5,-9.5 0,0 -5.17735,6.20105 -7.5,9.5 -1.81034,2.5713 -3.71106,5.13164 -5,8 -1.210525,2.69386 -2.5,5 -2.5,8.5 0,5 2,9 6.5,9 3.5,0 5.5,-5 6,-7 0.5,-0.5 0.5,0 0.5,0.5 -0.5,4 -0.5,5 -1,8 -0.5,3 -2,8.5 -2,8.5 2.5,-1 7.5,-1 10,0 0,0 -1.5,-5.5 -2,-8.5 -0.5,-3 -0.5,-4 -1,-8 0,-0.5 0,-1 0.5,-0.5 z"
         id="path3037-7-4-1" />
      <path
         style="fill:#000000;fill-opacity:1;stroke:none"
         d="m 332.5,934.36218 c 0.5,-2 2.5,-7 6,-7 4.5,0 6.5,4 6.5,9 0,3.5 -1.28947,5.80614 -2.5,8.5 -1.28894,2.86836 -3.18966,5.4287 -5,8 -2.32265,3.29895 -7.5,9.5 -7.5,9.5 0,0 -5.17735,-6.20105 -7.5,-9.5 -1.81034,-2.5713 -3.71106,-5.13164 -5,-8 -1.21053,-2.69386 -2.5,-5 -2.5,-8.5 0,-5 2,-9 6.5,-9 3.5,0 5.5,5 6,7 0.5,0.5 0.5,0 0.5,-0.5 -0.5,-4 -0.5,-5 -1,-8 -0.5,-3 -2,-8.5 -2,-8.5 2.5,1 7.5,1 10,0 0,0 -1.5,5.5 -2,8.5 -0.5,3 -0.5,4 -1,8 0,0.5 0,1 0.5,0.5 z"
         id="path3037-7-4-7-5" />
      <path
         style="fill:#000000;fill-opacity:1;stroke:none"
         d="m 95,613.36218 c 1,4 5,14 12,14 9,0 13,-8 13,-18 0,-7 -2.57895,-11.61229 -5,-17 -2.57788,-5.73673 -6.37932,-10.85741 -10,-16 -4.6453,-6.5979 -15,-19 -15,-19 0,0 -10.3547,12.4021 -15,19 -3.62068,5.14259 -7.42212,10.26327 -10,16 -2.42105,5.38771 -5,10 -5,17 0,10 4,18 13,18 7,0 11,-10 12,-14 1,-1 1,0 1,1 -1,8 -1,10 -2,16 -1,6 -4,17 -4,17 5,-2 15,-2 20,0 0,0 -3,-11 -4,-17 -1,-6 -1,-8 -2,-16 0,-1 0,-2 1,-1 z"
         id="path3037-7-76" />
      <path
         style="fill:#000000;fill-opacity:1;stroke:none"
         d="m 275,613.36218 c 1,4 5,14 12,14 9,0 13,-8 13,-18 0,-7 -2.57895,-11.61229 -5,-17 -2.57788,-5.73673 -6.37932,-10.85741 -10,-16 -4.6453,-6.5979 -15,-19 -15,-19 0,0 -10.3547,12.4021 -15,19 -3.62068,5.14259 -7.42212,10.26327 -10,16 -2.42105,5.38771 -5,10 -5,17 0,10 4,18 13,18 7,0 11,-10 12,-14 1,-1 1,0 1,1 -1,8 -1,10 -2,16 -1,6 -4,17 -4,17 5,-2 15,-2 20,0 0,0 -3,-11 -4,-17 -1,-6 -1,-8 -2,-16 0,-1 0,-2 1,-1 z"
         id="path3037-7-4-18" />
      <path
         style="fill:#000000;fill-opacity:1;stroke:none"
         d="m 95,733.36218 c 1,4 5,14 12,14 9,0 13,-8 13,-18 0,-7 -2.57895,-11.61229 -5,-17 -2.57788,-5.73673 -6.37932,-10.85741 -10,-16 -4.6453,-6.5979 -15,-19 -15,-19 0,0 -10.3547,12.4021 -15,19 -3.62068,5.14259 -7.42212,10.26327 -10,16 -2.42105,5.38771 -5,10 -5,17 0,10 4,18 13,18 7,0 11,-10 12,-14 1,-1 1,0 1,1 -1,8 -1,10 -2,16 -1,6 -4,17 -4,17 5,-2 15,-2 20,0 0,0 -3,-11 -4,-17 -1,-6 -1,-8 -2,-16 0,-1 0,-2 1,-1 z"
         id="path3037-7-09-9" />
      <path
         style="fill:#000000;fill-opacity:1;stroke:none"
         d="m 275,733.36218 c 1,4 5,14 12,14 9,0 13,-8 13,-18 0,-7 -2.57895,-11.61229 -5,-17 -2.57788,-5.73673 -6.37932,-10.85741 -10,-16 -4.6453,-6.5979 -15,-19 -15,-19 0,0 -10.3547,12.4021 -15,19 -3.62068,5.14259 -7.42212,10.26327 -10,16 -2.42105,5.38771 -5,10 -5,17 0,10 4,18 13,18 7,0 11,-10 12,-14 1,-1 1,0 1,1 -1,8 -1,10 -2,16 -1,6 -4,17 -4,17 5,-2 15,-2 20,0 0,0 -3,-11 -4,-17 -1,-6 -1,-8 -2,-16 0,-1 0,-2 1,-1 z"
         id="path3037-7-48" />
      <path
         style="fill:#000000;fill-opacity:1;stroke:none"
         d="m 185,793.36218 c 1,4 5,14 12,14 9,0 13,-8 13,-18 0,-7 -2.57895,-11.61229 -5,-17 -2.57788,-5.73673 -6.37932,-10.85741 -10,-16 -4.6453,-6.5979 -15,-19 -15,-19 0,0 -10.3547,12.4021 -15,19 -3.62068,5.14259 -7.42212,10.26327 -10,16 -2.42105,5.38771 -5,10 -5,17 0,10 4,18 13,18 7,0 11,-10 12,-14 1,-1 1,0 1,1 -1,8 -1,10 -2,16 -1,6 -4,17 -4,17 5,-2 15,-2 20,0 0,0 -3,-11 -4,-17 -1,-6 -1,-8 -2,-16 0,-1 0,-2 1,-1 z"
         id="path3037-7-8-2" />
      <path
         style="fill:#000000;fill-opacity:1;stroke:none"
         d="m 95,831.36218 c 1,-4 5,-14 12,-14 9,0 13,8 13,18 0,7 -2.57895,11.61229 -5,17 -2.57788,5.73673 -6.37932,10.85741 -10,16 -4.6453,6.5979 -15,19 -15,19 0,0 -10.3547,-12.4021 -15,-19 -3.62068,-5.14259 -7.42212,-10.26327 -10,-16 -2.42105,-5.38771 -5,-10 -5,-17 0,-10 4,-18 13,-18 7,0 11,10 12,14 1,1 1,0 1,-1 -1,-8 -1,-10 -2,-16 -1,-6 -4,-17 -4,-17 5,2 15,2 20,0 0,0 -3,11 -4,17 -1,6 -1,8 -2,16 0,1 0,2 1,1 z"
         id="path3037-7-2-7" />
      <path
         style="fill:#000000;fill-opacity:1;stroke:none"
         d="m 275,831.36218 c 1,-4 5,-14 12,-14 9,0 13,8 13,18 0,7 -2.57895,11.61229 -5,17 -2.57788,5.73673 -6.37932,10.85741 -10,16 -4.6453,6.5979 -15,19 -15,19 0,0 -10.3547,-12.4021 -15,-19 -3.62068,-5.14259 -7.42212,-10.26327 -10,-16 -2.42105,-5.38771 -5,-10 -5,-17 0,-10 4,-18 13,-18 7,0 11,10 12,14 1,1 1,0 1,-1 -1,-8 -1,-10 -2,-16 -1,-6 -4,-17 -4,-17 5,2 15,2 20,0 0,0 -3,11 -4,17 -1,6 -1,8 -2,16 0,1 0,2 1,1 z"
         id="path3037-7-45-9" />
      <path
         style="fill:#000000;fill-opacity:1;stroke:none"
         d="m 95,951.3622 c 1,-4 5,-14 12,-14 9,0 13,8 13,18 0,7 -2.57895,11.61229 -5,17 -2.57788,5.73673 -6.37932,10.85741 -10,16 -4.6453,6.5979 -15,19 -15,19 0,0 -10.3547,-12.4021 -15,-19 -3.62068,-5.14259 -7.42212,-10.26327 -10,-16 -2.42105,-5.38771 -5,-10 -5,-17 0,-10 4,-18 13,-18 7,0 11,10 12,14 1,1 1,0 1,-1 -1,-8 -1,-10 -2,-16 -1,-6 -4,-17.00002 -4,-17.00002 5,2 15,2 20,0 0,0 -3,11.00002 -4,17.00002 -1,6 -1,8 -2,16 0,1 0,2 1,1 z"
         id="path3037-7-5-5" />
      <path
         style="fill:#000000;fill-opacity:1;stroke:none"
         d="m 275,951.3622 c 1,-4 5,-14 12,-14 9,0 13,8 13,18 0,7 -2.57895,11.61229 -5,17 -2.57788,5.73673 -6.37932,10.85741 -10,16 -4.6453,6.5979 -15,19 -15,19 0,0 -10.3547,-12.4021 -15,-19 -3.62068,-5.14259 -7.42212,-10.26327 -10,-16 -2.42105,-5.38771 -5,-10 -5,-17 0,-10 4,-18 13,-18 7,0 11,10 12,14 1,1 1,0 1,-1 -1,-8 -1,-10 -2,-16 -1,-6 -4,-17.00002 -4,-17.00002 5,2 15,2 20,0 0,0 -3,11.00002 -4,17.00002 -1,6 -1,8 -2,16 0,1 0,2 1,1 z"
         id="path3037-7-1-4" />
    </g>
  </g>
</svg>
