<?xml version="1.0" encoding="UTF-8" standalone="no"?>
<svg
   xmlns:dc="http://purl.org/dc/elements/1.1/"
   xmlns:cc="http://creativecommons.org/ns#"
   xmlns:rdf="http://www.w3.org/1999/02/22-rdf-syntax-ns#"
   xmlns:svg="http://www.w3.org/2000/svg"
   xmlns="http://www.w3.org/2000/svg"
   width="94.98542mm"
   height="142.61041mm"
   viewBox="0 0 94.98542 142.61041"
   version="1.1"
   id="svg10278">
  <defs
     id="defs10272" />
  <metadata
     id="metadata10275">
    <rdf:RDF>
      <cc:Work
         rdf:about="">
        <dc:format>image/svg+xml</dc:format>
        <dc:type
           rdf:resource="http://purl.org/dc/dcmitype/StillImage" />
        <dc:title></dc:title>
      </cc:Work>
    </rdf:RDF>
  </metadata>
  <g
     id="layer1"
     transform="translate(-102.18586,-26.21265)">
    <rect
       rx="7.9228015"
       ry="7.9228015"
       y="26.21265"
       x="102.18586"
       height="142.61041"
       width="94.98542"
       id="rect6472-45"
       style="font-variation-settings:normal;opacity:1;vector-effect:none;fill:#ffffff;fill-opacity:1;stroke:none;stroke-width:0.264583;stroke-linecap:butt;stroke-linejoin:miter;stroke-miterlimit:4;stroke-dasharray:none;stroke-dashoffset:0;stroke-opacity:1;stop-color:#000000;stop-opacity:1" />
    <path
       id="path3497-7"
       d="m 109.32961,34.017858 -2.38125,13.229167 h 1.32292 l 0.62012,-3.439583 h 2.19934 l 0.62012,3.439583 h 1.32292 l -2.38125,-13.229167 z m 0.66146,3.679363 0.8599,4.787304 h -1.7198 z"
       style="fill:#000000;stroke:none;stroke-width:0.264583" />
    <path
       id="path3497-5-9"
       d="m 188.70461,161.01786 -2.38125,-13.22917 h 1.32292 l 0.62012,3.43958 h 2.19934 l 0.62012,-3.43958 h 1.32292 l -2.38125,13.22917 z m 0.66146,-3.67937 0.8599,-4.7873 h -1.7198 z"
       style="fill:#000000;stroke:none;stroke-width:0.264583" />
    <path
       id="path3037-7-83"
       d="m 151.00149,100.42828 c 0.26458,1.05833 1.32291,3.70416 3.175,3.70416 2.38125,0 3.43958,-2.11666 3.43958,-4.762497 0,-1.852084 -0.68235,-3.072419 -1.32292,-4.497917 -0.68206,-1.517843 -1.68786,-2.87269 -2.64583,-4.233333 -1.22907,-1.745695 -3.96875,-5.027084 -3.96875,-5.027084 0,0 -2.73968,3.281389 -3.96875,5.027084 -0.95797,1.360643 -1.96377,2.71549 -2.64583,4.233333 -0.64057,1.425498 -1.32292,2.645833 -1.32292,4.497917 0,2.645837 1.05833,4.762497 3.43958,4.762497 1.85209,0 2.91042,-2.64583 3.175,-3.70416 0.26459,-0.26459 0.26459,0 0.26459,0.26458 -0.26459,2.11667 -0.26459,2.64583 -0.52917,4.23333 -0.26458,1.5875 -1.05833,4.49792 -1.05833,4.49792 1.32291,-0.52917 3.96875,-0.52917 5.29166,0 0,0 -0.79375,-2.91042 -1.05833,-4.49792 -0.26458,-1.5875 -0.26458,-2.11666 -0.52917,-4.23333 0,-0.26458 0,-0.52917 0.26459,-0.26458 z"
       style="fill:#000000;fill-opacity:1;stroke:none;stroke-width:0.264583" />
    <path
       id="path3037-7-4-02"
       d="m 110.65253,57.301193 c 0.13229,0.529166 0.66146,1.852083 1.5875,1.852083 1.19062,0 1.71979,-1.058333 1.71979,-2.38125 0,-0.926042 -0.34117,-1.536208 -0.66146,-2.248958 -0.34103,-0.758921 -0.84393,-1.436344 -1.32292,-2.116668 -0.61453,-0.872847 -1.98437,-2.513541 -1.98437,-2.513541 0,0 -1.36984,1.640694 -1.98438,2.513541 -0.47898,0.680324 -0.98188,1.357747 -1.32291,2.116668 -0.32029,0.71275 -0.66146,1.322916 -0.66146,2.248958 0,1.322917 0.52917,2.38125 1.71979,2.38125 0.92604,0 1.45521,-1.322917 1.5875,-1.852083 0.13229,-0.132292 0.13229,0 0.13229,0.132291 -0.13229,1.058334 -0.13229,1.322917 -0.26458,2.116667 -0.13229,0.79375 -0.52917,2.248958 -0.52917,2.248958 0.66146,-0.264583 1.98438,-0.264583 2.64584,0 0,0 -0.39688,-1.455208 -0.52917,-2.248958 -0.13229,-0.79375 -0.13229,-1.058333 -0.26458,-2.116667 0,-0.132291 0,-0.264583 0.13229,-0.132291 z"
       style="fill:#000000;fill-opacity:1;stroke:none;stroke-width:0.264583" />
    <path
       id="path3037-7-4-0-2"
       d="m 190.02753,137.73452 c 0.13229,-0.52916 0.66146,-1.85208 1.5875,-1.85208 1.19062,0 1.71979,1.05833 1.71979,2.38125 0,0.92604 -0.34117,1.53621 -0.66146,2.24896 -0.34103,0.75892 -0.84393,1.43634 -1.32292,2.11667 -0.61453,0.87284 -1.98437,2.51354 -1.98437,2.51354 0,0 -1.36984,-1.6407 -1.98438,-2.51354 -0.47898,-0.68033 -0.98188,-1.35775 -1.32291,-2.11667 -0.32029,-0.71275 -0.66146,-1.32292 -0.66146,-2.24896 0,-1.32292 0.52917,-2.38125 1.71979,-2.38125 0.92604,0 1.45521,1.32292 1.5875,1.85208 0.13229,0.1323 0.13229,0 0.13229,-0.13229 -0.13229,-1.05833 -0.13229,-1.32291 -0.26458,-2.11666 -0.13229,-0.79375 -0.52917,-2.24896 -0.52917,-2.24896 0.66146,0.26458 1.98438,0.26458 2.64584,0 0,0 -0.39688,1.45521 -0.52917,2.24896 -0.13229,0.79375 -0.13229,1.05833 -0.26458,2.11666 0,0.13229 0,0.26459 0.13229,0.13229 z"
       style="fill:#000000;fill-opacity:1;stroke:none;stroke-width:0.264583" />
  </g>
</svg>
