<?xml version="1.0" encoding="UTF-8" standalone="no"?>
<svg
   xmlns:dc="http://purl.org/dc/elements/1.1/"
   xmlns:cc="http://creativecommons.org/ns#"
   xmlns:rdf="http://www.w3.org/1999/02/22-rdf-syntax-ns#"
   xmlns:svg="http://www.w3.org/2000/svg"
   xmlns="http://www.w3.org/2000/svg"
   xmlns:sodipodi="http://sodipodi.sourceforge.net/DTD/sodipodi-0.dtd"
   xmlns:inkscape="http://www.inkscape.org/namespaces/inkscape"
   width="94.98542mm"
   height="142.61041mm"
   viewBox="0 0 94.98542 142.61041"
   version="1.1"
   id="svg10278"
   sodipodi:docname="spade-ace.svg"
   inkscape:version="1.0.2 (e86c870879, 2021-01-15)">
  <sodipodi:namedview
     pagecolor="#ffffff"
     bordercolor="#666666"
     borderopacity="1"
     objecttolerance="10"
     gridtolerance="10"
     guidetolerance="10"
     inkscape:pageopacity="0"
     inkscape:pageshadow="2"
     inkscape:window-width="2552"
     inkscape:window-height="1375"
     id="namedview9134"
     showgrid="false"
     inkscape:zoom="1.8701299"
     inkscape:cx="38.065983"
     inkscape:cy="269.49999"
     inkscape:window-x="0"
     inkscape:window-y="61"
     inkscape:window-maximized="0"
     inkscape:current-layer="svg10278" />
  <defs
     id="defs10272" />
  <metadata
     id="metadata10275">
    <rdf:RDF>
      <cc:Work
         rdf:about="">
        <dc:format>image/svg+xml</dc:format>
        <dc:type
           rdf:resource="http://purl.org/dc/dcmitype/StillImage" />
        <dc:title />
      </cc:Work>
    </rdf:RDF>
  </metadata>
  <rect
     style="fill:#ffffff;stroke-width:1.3734;stop-color:#000000"
     id="rect26713"
     width="94.985413"
     height="142.61041"
     x="0"
     y="0" />
  <path
     id="path3497-7"
     d="M 7.14375,7.805208 4.7625,21.034375 H 6.08542 L 6.70554,17.594792 H 8.90488 L 9.525,21.034375 h 1.32292 L 8.46667,7.805208 Z m 0.66146,3.679363 0.8599,4.787304 h -1.7198 z"
     style="fill:#000000;stroke:none;stroke-width:0.264583" />
  <path
     id="path3497-5-9"
     d="M 86.51875,134.80521 84.1375,121.57604 h 1.32292 l 0.62012,3.43958 h 2.19934 L 88.9,121.57604 h 1.32292 l -2.38125,13.22917 z m 0.66146,-3.67937 0.8599,-4.7873 h -1.7198 z"
     style="fill:#000000;stroke:none;stroke-width:0.264583" />
  <path
     id="path3037-7-83"
     d="m 48.81563,74.21563 c 0.26458,1.05833 1.32291,3.70416 3.175,3.70416 2.38125,0 3.43958,-2.11666 3.43958,-4.762497 0,-1.852084 -0.68235,-3.072419 -1.32292,-4.497917 -0.68206,-1.517843 -1.68786,-2.87269 -2.64583,-4.233333 -1.22907,-1.745695 -3.96875,-5.027084 -3.96875,-5.027084 0,0 -2.73968,3.281389 -3.96875,5.027084 -0.95797,1.360643 -1.96377,2.71549 -2.64583,4.233333 -0.64057,1.425498 -1.32292,2.645833 -1.32292,4.497917 0,2.645837 1.05833,4.762497 3.43958,4.762497 1.85209,0 2.91042,-2.64583 3.175,-3.70416 0.26459,-0.26459 0.26459,0 0.26459,0.26458 -0.26459,2.11667 -0.26459,2.64583 -0.52917,4.23333 -0.26458,1.5875 -1.05833,4.49792 -1.05833,4.49792 1.32291,-0.52917 3.96875,-0.52917 5.29166,0 0,0 -0.79375,-2.91042 -1.05833,-4.49792 -0.26458,-1.5875 -0.26458,-2.11666 -0.52917,-4.23333 0,-0.26458 0,-0.52917 0.26459,-0.26458 z"
     style="fill:#000000;fill-opacity:1;stroke:none;stroke-width:0.264583" />
  <path
     id="path3037-7-4-02"
     d="m 8.46667,31.088543 c 0.13229,0.529166 0.66146,1.852083 1.5875,1.852083 1.19062,0 1.71979,-1.058333 1.71979,-2.38125 0,-0.926042 -0.34117,-1.536208 -0.66146,-2.248958 C 10.77147,27.551497 10.26857,26.874074 9.78958,26.19375 9.17505,25.320903 7.80521,23.680209 7.80521,23.680209 c 0,0 -1.36984,1.640694 -1.98438,2.513541 -0.47898,0.680324 -0.98188,1.357747 -1.32291,2.116668 -0.32029,0.71275 -0.66146,1.322916 -0.66146,2.248958 0,1.322917 0.52917,2.38125 1.71979,2.38125 0.92604,0 1.45521,-1.322917 1.5875,-1.852083 0.13229,-0.132292 0.13229,0 0.13229,0.132291 -0.13229,1.058334 -0.13229,1.322917 -0.26458,2.116667 -0.13229,0.79375 -0.52917,2.248958 -0.52917,2.248958 0.66146,-0.264583 1.98438,-0.264583 2.64584,0 0,0 -0.39688,-1.455208 -0.52917,-2.248958 -0.13229,-0.79375 -0.13229,-1.058333 -0.26458,-2.116667 0,-0.132291 0,-0.264583 0.13229,-0.132291 z"
     style="fill:#000000;fill-opacity:1;stroke:none;stroke-width:0.264583" />
  <path
     id="path3037-7-4-0-2"
     d="m 87.84167,111.52187 c 0.13229,-0.52916 0.66146,-1.85208 1.5875,-1.85208 1.19062,0 1.71979,1.05833 1.71979,2.38125 0,0.92604 -0.34117,1.53621 -0.66146,2.24896 -0.34103,0.75892 -0.84393,1.43634 -1.32292,2.11667 -0.61453,0.87284 -1.98437,2.51354 -1.98437,2.51354 0,0 -1.36984,-1.6407 -1.98438,-2.51354 -0.47898,-0.68033 -0.98188,-1.35775 -1.32291,-2.11667 -0.32029,-0.71275 -0.66146,-1.32292 -0.66146,-2.24896 0,-1.32292 0.52917,-2.38125 1.71979,-2.38125 0.92604,0 1.45521,1.32292 1.5875,1.85208 0.13229,0.1323 0.13229,0 0.13229,-0.13229 -0.13229,-1.05833 -0.13229,-1.32291 -0.26458,-2.11666 -0.13229,-0.79375 -0.52917,-2.24896 -0.52917,-2.24896 0.66146,0.26458 1.98438,0.26458 2.64584,0 0,0 -0.39688,1.45521 -0.52917,2.24896 -0.13229,0.79375 -0.13229,1.05833 -0.26458,2.11666 0,0.13229 0,0.26459 0.13229,0.13229 z"
     style="fill:#000000;fill-opacity:1;stroke:none;stroke-width:0.264583" />
</svg>
