<?xml version="1.0" encoding="UTF-8" standalone="no"?>
<svg
   xmlns:dc="http://purl.org/dc/elements/1.1/"
   xmlns:cc="http://creativecommons.org/ns#"
   xmlns:rdf="http://www.w3.org/1999/02/22-rdf-syntax-ns#"
   xmlns:svg="http://www.w3.org/2000/svg"
   xmlns="http://www.w3.org/2000/svg"
   xmlns:sodipodi="http://sodipodi.sourceforge.net/DTD/sodipodi-0.dtd"
   xmlns:inkscape="http://www.inkscape.org/namespaces/inkscape"
   width="94.985413mm"
   height="142.61041mm"
   viewBox="0 0 94.985412 142.61041"
   version="1.1"
   id="svg10278"
   sodipodi:docname="spade-9.svg"
   inkscape:version="1.0.2 (e86c870879, 2021-01-15)">
  <sodipodi:namedview
     pagecolor="#ffffff"
     bordercolor="#666666"
     borderopacity="1"
     objecttolerance="10"
     gridtolerance="10"
     guidetolerance="10"
     inkscape:pageopacity="0"
     inkscape:pageshadow="2"
     inkscape:window-width="2552"
     inkscape:window-height="1375"
     id="namedview8987"
     showgrid="false"
     inkscape:zoom="1.8701299"
     inkscape:cx="38.065969"
     inkscape:cy="269.49999"
     inkscape:window-x="0"
     inkscape:window-y="61"
     inkscape:window-maximized="0"
     inkscape:current-layer="svg10278" />
  <defs
     id="defs10272" />
  <metadata
     id="metadata10275">
    <rdf:RDF>
      <cc:Work
         rdf:about="">
        <dc:format>image/svg+xml</dc:format>
        <dc:type
           rdf:resource="http://purl.org/dc/dcmitype/StillImage" />
        <dc:title />
      </cc:Work>
    </rdf:RDF>
  </metadata>
  <rect
     style="fill:#ffffff;stroke-width:1.3734;stop-color:#000000"
     id="rect26713"
     width="94.985413"
     height="142.61041"
     x="-7.1054274e-15"
     y="0" />
  <path
     style="fill:#000000;fill-opacity:1;stroke:none;stroke-width:0.264583"
     id="rect3163-7-1-7-3-0-78"
     d="m 7.8052099,21.034352 c 1.4657916,0 2.6458331,-1.180042 2.6458331,-2.645834 v -5.291666 -2.645834 c 0,-1.4657912 -1.1800415,-2.6458328 -2.6458331,-2.6458328 -1.4657916,0 -2.6458333,1.1800416 -2.6458333,2.6458328 v 2.645834 c 0,1.465791 1.1800417,2.645833 2.6458333,2.645833 0.4822296,0 0.934376,-0.131921 1.3229167,-0.355547 v 3.00138 c 0,0.732896 -0.5900209,1.322917 -1.3229167,1.322917 -0.7328958,0 -1.3229167,-0.590021 -1.3229167,-1.322917 V 18.123935 H 5.1593766 v 0.264583 c 0,1.465792 1.1800417,2.645834 2.6458333,2.645834 z m 0,-6.614584 c -0.7328958,0 -1.3229167,-0.59002 -1.3229167,-1.322916 v -2.645834 c 0,-0.7328953 0.5900209,-1.3229162 1.3229167,-1.3229162 0.7328958,0 1.3229167,0.5900209 1.3229167,1.3229162 v 2.645834 c 0,0.732896 -0.5900209,1.322916 -1.3229167,1.322916 z" />
  <path
     style="fill:#000000;fill-opacity:1;stroke:none;stroke-width:0.264583"
     id="rect3163-7-1-7-3-0-78-1"
     d="m 87.180209,121.57602 c -1.465792,0 -2.645833,1.18004 -2.645833,2.64583 v 5.29167 2.64584 c 0,1.46579 1.180041,2.64583 2.645833,2.64583 1.465792,0 2.645833,-1.18004 2.645833,-2.64583 v -2.64584 c 0,-1.46579 -1.180041,-2.64584 -2.645833,-2.64584 -0.48223,0 -0.934376,0.13192 -1.322917,0.35555 v -3.00138 c 0,-0.7329 0.590021,-1.32292 1.322917,-1.32292 0.732896,0 1.322917,0.59002 1.322917,1.32292 v 0.26458 h 1.322916 v -0.26458 c 0,-1.46579 -1.180041,-2.64583 -2.645833,-2.64583 z m 0,6.61459 c 0.732896,0 1.322917,0.59002 1.322917,1.32291 v 2.64584 c 0,0.73289 -0.590021,1.32291 -1.322917,1.32291 -0.732896,0 -1.322917,-0.59002 -1.322917,-1.32291 v -2.64584 c 0,-0.73289 0.590021,-1.32291 1.322917,-1.32291 z" />
  <path
     style="fill:#000000;fill-opacity:1;stroke:none;stroke-width:0.264583"
     d="m 8.4666682,31.088545 c 0.1322917,0.529166 0.6614584,1.852083 1.5874998,1.852083 1.190625,0 1.719792,-1.058333 1.719792,-2.38125 0,-0.926042 -0.341174,-1.536208 -0.661458,-2.248958 -0.341033,-0.758921 -0.843931,-1.436344 -1.3229171,-2.116667 -0.6145345,-0.872847 -1.984375,-2.513542 -1.984375,-2.513542 0,0 -1.3698405,1.640695 -1.984375,2.513542 C 5.3418491,26.874076 4.8389503,27.551499 4.4979183,28.31042 4.1776335,29.02317 3.83646,29.633336 3.83646,30.559378 c 0,1.322917 0.5291666,2.38125 1.7197916,2.38125 0.9260416,0 1.4552083,-1.322917 1.5875,-1.852083 0.1322916,-0.132292 0.1322916,0 0.1322916,0.132291 -0.1322916,1.058334 -0.1322916,1.322917 -0.2645833,2.116667 -0.1322917,0.79375 -0.5291667,2.248958 -0.5291667,2.248958 0.6614584,-0.264583 1.984375,-0.264583 2.6458334,0 0,0 -0.396875,-1.455208 -0.5291667,-2.248958 -0.1322917,-0.79375 -0.1322917,-1.058333 -0.2645833,-2.116667 0,-0.132291 0,-0.264583 0.1322916,-0.132291 z"
     id="path3037-7-4-1" />
  <path
     style="fill:#000000;fill-opacity:1;stroke:none;stroke-width:0.264583"
     d="m 87.841667,111.52188 c 0.132292,-0.52917 0.661459,-1.85209 1.5875,-1.85209 1.190625,0 1.719792,1.05834 1.719792,2.38125 0,0.92605 -0.341172,1.53621 -0.661458,2.24896 -0.341033,0.75892 -0.843931,1.43635 -1.322917,2.11667 -0.614535,0.87285 -1.984375,2.51354 -1.984375,2.51354 0,0 -1.369841,-1.64069 -1.984375,-2.51354 -0.478986,-0.68032 -0.981885,-1.35775 -1.322917,-2.11667 -0.320286,-0.71275 -0.661458,-1.32291 -0.661458,-2.24896 0,-1.32291 0.529167,-2.38125 1.719792,-2.38125 0.926041,0 1.455208,1.32292 1.5875,1.85209 0.132291,0.13229 0.132291,0 0.132291,-0.13229 -0.132291,-1.05834 -0.132291,-1.32292 -0.264583,-2.11667 -0.132292,-0.79375 -0.529167,-2.24896 -0.529167,-2.24896 0.661459,0.26458 1.984375,0.26458 2.645834,0 0,0 -0.396875,1.45521 -0.529167,2.24896 -0.132292,0.79375 -0.132292,1.05833 -0.264583,2.11667 0,0.13229 0,0.26458 0.132291,0.13229 z"
     id="path3037-7-4-7-5" />
  <path
     style="fill:#000000;fill-opacity:1;stroke:none;stroke-width:0.264583"
     d="m 25.003126,26.590628 c 0.264584,1.058333 1.322917,3.704167 3.175,3.704167 2.38125,0 3.439584,-2.116667 3.439584,-4.7625 0,-1.852084 -0.682348,-3.072419 -1.322917,-4.497917 -0.682064,-1.517843 -1.687862,-2.87269 -2.645833,-4.233333 -1.229069,-1.745694 -3.96875,-5.027083 -3.96875,-5.027083 0,0 -2.739681,3.281389 -3.96875,5.027083 -0.957972,1.360643 -1.963769,2.71549 -2.645834,4.233333 -0.640569,1.425498 -1.322916,2.645833 -1.322916,4.497917 0,2.645833 1.058333,4.7625 3.439583,4.7625 1.852083,0 2.910417,-2.645834 3.175,-3.704167 0.264583,-0.264583 0.264583,0 0.264583,0.264583 -0.264583,2.116667 -0.264583,2.645834 -0.529166,4.233334 -0.264584,1.5875 -1.058334,4.497916 -1.058334,4.497916 1.322917,-0.529166 3.96875,-0.529166 5.291667,0 0,0 -0.79375,-2.910416 -1.058333,-4.497916 -0.264584,-1.5875 -0.264584,-2.116667 -0.529167,-4.233334 0,-0.264583 0,-0.529166 0.264583,-0.264583 z"
     id="path3037-7-76" />
  <path
     style="fill:#000000;fill-opacity:1;stroke:none;stroke-width:0.264583"
     d="m 72.628126,26.590628 c 0.264583,1.058333 1.322916,3.704167 3.175,3.704167 2.38125,0 3.439583,-2.116667 3.439583,-4.7625 0,-1.852084 -0.682347,-3.072419 -1.322917,-4.497917 -0.682064,-1.517843 -1.687861,-2.87269 -2.645833,-4.233333 -1.229069,-1.745694 -3.96875,-5.027083 -3.96875,-5.027083 0,0 -2.739681,3.281389 -3.96875,5.027083 -0.957971,1.360643 -1.963769,2.71549 -2.645833,4.233333 -0.64057,1.425498 -1.322917,2.645833 -1.322917,4.497917 0,2.645833 1.058334,4.7625 3.439583,4.7625 1.852084,0 2.910417,-2.645834 3.175,-3.704167 0.264584,-0.264583 0.264584,0 0.264584,0.264583 -0.264584,2.116667 -0.264584,2.645834 -0.529167,4.233334 -0.264583,1.5875 -1.058333,4.497916 -1.058333,4.497916 1.322916,-0.529166 3.96875,-0.529166 5.291666,0 0,0 -0.79375,-2.910416 -1.058333,-4.497916 -0.264583,-1.5875 -0.264583,-2.116667 -0.529167,-4.233334 0,-0.264583 0,-0.529166 0.264584,-0.264583 z"
     id="path3037-7-4-18" />
  <path
     style="fill:#000000;fill-opacity:1;stroke:none;stroke-width:0.264583"
     d="m 25.003126,58.340628 c 0.264584,1.058333 1.322917,3.704166 3.175,3.704166 2.38125,0 3.439584,-2.116666 3.439584,-4.7625 0,-1.852083 -0.682348,-3.072418 -1.322917,-4.497916 -0.682064,-1.517843 -1.687862,-2.87269 -2.645833,-4.233334 -1.229069,-1.745694 -3.96875,-5.027083 -3.96875,-5.027083 0,0 -2.739681,3.281389 -3.96875,5.027083 -0.957972,1.360644 -1.963769,2.715491 -2.645834,4.233334 -0.640569,1.425498 -1.322916,2.645833 -1.322916,4.497916 0,2.645834 1.058333,4.7625 3.439583,4.7625 1.852083,0 2.910417,-2.645833 3.175,-3.704166 0.264583,-0.264584 0.264583,0 0.264583,0.264583 -0.264583,2.116667 -0.264583,2.645833 -0.529166,4.233333 -0.264584,1.5875 -1.058334,4.497917 -1.058334,4.497917 1.322917,-0.529167 3.96875,-0.529167 5.291667,0 0,0 -0.79375,-2.910417 -1.058333,-4.497917 -0.264584,-1.5875 -0.264584,-2.116666 -0.529167,-4.233333 0,-0.264583 0,-0.529167 0.264583,-0.264583 z"
     id="path3037-7-09-9" />
  <path
     style="fill:#000000;fill-opacity:1;stroke:none;stroke-width:0.264583"
     d="m 72.628126,58.340628 c 0.264583,1.058333 1.322916,3.704166 3.175,3.704166 2.38125,0 3.439583,-2.116666 3.439583,-4.7625 0,-1.852083 -0.682347,-3.072418 -1.322917,-4.497916 -0.682064,-1.517843 -1.687861,-2.87269 -2.645833,-4.233334 -1.229069,-1.745694 -3.96875,-5.027083 -3.96875,-5.027083 0,0 -2.739681,3.281389 -3.96875,5.027083 -0.957971,1.360644 -1.963769,2.715491 -2.645833,4.233334 -0.64057,1.425498 -1.322917,2.645833 -1.322917,4.497916 0,2.645834 1.058334,4.7625 3.439583,4.7625 1.852084,0 2.910417,-2.645833 3.175,-3.704166 0.264584,-0.264584 0.264584,0 0.264584,0.264583 -0.264584,2.116667 -0.264584,2.645833 -0.529167,4.233333 -0.264583,1.5875 -1.058333,4.497917 -1.058333,4.497917 1.322916,-0.529167 3.96875,-0.529167 5.291666,0 0,0 -0.79375,-2.910417 -1.058333,-4.497917 -0.264583,-1.5875 -0.264583,-2.116666 -0.529167,-4.233333 0,-0.264583 0,-0.529167 0.264584,-0.264583 z"
     id="path3037-7-48" />
  <path
     style="fill:#000000;fill-opacity:1;stroke:none;stroke-width:0.264583"
     d="m 48.815626,74.215627 c 0.264583,1.058334 1.322917,3.704167 3.175,3.704167 2.38125,0 3.439583,-2.116667 3.439583,-4.7625 0,-1.852083 -0.682347,-3.072418 -1.322916,-4.497916 -0.682064,-1.517844 -1.687862,-2.87269 -2.645834,-4.233334 -1.229069,-1.745694 -3.96875,-5.027083 -3.96875,-5.027083 0,0 -2.739681,3.281389 -3.96875,5.027083 -0.957971,1.360644 -1.963769,2.71549 -2.645833,4.233334 -0.640569,1.425498 -1.322916,2.645833 -1.322916,4.497916 0,2.645833 1.058333,4.7625 3.439583,4.7625 1.852083,0 2.910416,-2.645833 3.175,-3.704167 0.264583,-0.264583 0.264583,0 0.264583,0.264584 -0.264583,2.116666 -0.264583,2.645833 -0.529167,4.233333 -0.264583,1.5875 -1.058333,4.497917 -1.058333,4.497917 1.322917,-0.529167 3.96875,-0.529167 5.291667,0 0,0 -0.79375,-2.910417 -1.058334,-4.497917 -0.264583,-1.5875 -0.264583,-2.116667 -0.529166,-4.233333 0,-0.264584 0,-0.529167 0.264583,-0.264584 z"
     id="path3037-7-8-2" />
  <path
     style="fill:#000000;fill-opacity:1;stroke:none;stroke-width:0.264583"
     d="m 25.003126,84.269794 c 0.264584,-1.058333 1.322917,-3.704167 3.175,-3.704167 2.38125,0 3.439584,2.116667 3.439584,4.7625 0,1.852084 -0.682348,3.072419 -1.322917,4.497917 -0.682064,1.517843 -1.687862,2.87269 -2.645833,4.233333 -1.229069,1.745695 -3.96875,5.027084 -3.96875,5.027084 0,0 -2.739681,-3.281389 -3.96875,-5.027084 -0.957972,-1.360643 -1.963769,-2.71549 -2.645834,-4.233333 -0.640569,-1.425498 -1.322916,-2.645833 -1.322916,-4.497917 0,-2.645833 1.058333,-4.7625 3.439583,-4.7625 1.852083,0 2.910417,2.645834 3.175,3.704167 0.264583,0.264583 0.264583,0 0.264583,-0.264583 -0.264583,-2.116667 -0.264583,-2.645834 -0.529166,-4.233334 -0.264584,-1.5875 -1.058334,-4.497916 -1.058334,-4.497916 1.322917,0.529166 3.96875,0.529166 5.291667,0 0,0 -0.79375,2.910416 -1.058333,4.497916 -0.264584,1.5875 -0.264584,2.116667 -0.529167,4.233334 0,0.264583 0,0.529166 0.264583,0.264583 z"
     id="path3037-7-2-7" />
  <path
     style="fill:#000000;fill-opacity:1;stroke:none;stroke-width:0.264583"
     d="m 72.628126,84.269794 c 0.264583,-1.058333 1.322916,-3.704167 3.175,-3.704167 2.38125,0 3.439583,2.116667 3.439583,4.7625 0,1.852084 -0.682347,3.072419 -1.322917,4.497917 -0.682064,1.517843 -1.687861,2.87269 -2.645833,4.233333 -1.229069,1.745695 -3.96875,5.027084 -3.96875,5.027084 0,0 -2.739681,-3.281389 -3.96875,-5.027084 -0.957971,-1.360643 -1.963769,-2.71549 -2.645833,-4.233333 -0.64057,-1.425498 -1.322917,-2.645833 -1.322917,-4.497917 0,-2.645833 1.058334,-4.7625 3.439583,-4.7625 1.852084,0 2.910417,2.645834 3.175,3.704167 0.264584,0.264583 0.264584,0 0.264584,-0.264583 -0.264584,-2.116667 -0.264584,-2.645834 -0.529167,-4.233334 -0.264583,-1.5875 -1.058333,-4.497916 -1.058333,-4.497916 1.322916,0.529166 3.96875,0.529166 5.291666,0 0,0 -0.79375,2.910416 -1.058333,4.497916 -0.264583,1.5875 -0.264583,2.116667 -0.529167,4.233334 0,0.264583 0,0.529166 0.264584,0.264583 z"
     id="path3037-7-45-9" />
  <path
     style="fill:#000000;fill-opacity:1;stroke:none;stroke-width:0.264583"
     d="m 25.003126,116.0198 c 0.264584,-1.05833 1.322917,-3.70417 3.175,-3.70417 2.38125,0 3.439584,2.11667 3.439584,4.7625 0,1.85209 -0.682348,3.07242 -1.322917,4.49792 -0.682064,1.51784 -1.687862,2.87269 -2.645833,4.23333 -1.229069,1.7457 -3.96875,5.02709 -3.96875,5.02709 0,0 -2.739681,-3.28139 -3.96875,-5.02709 -0.957972,-1.36064 -1.963769,-2.71549 -2.645834,-4.23333 -0.640569,-1.4255 -1.322916,-2.64583 -1.322916,-4.49792 0,-2.64583 1.058333,-4.7625 3.439583,-4.7625 1.852083,0 2.910417,2.64584 3.175,3.70417 0.264583,0.26458 0.264583,0 0.264583,-0.26458 -0.264583,-2.11667 -0.264583,-2.64584 -0.529166,-4.23334 -0.264584,-1.5875 -1.058334,-4.49792 -1.058334,-4.49792 1.322917,0.52917 3.96875,0.52917 5.291667,0 0,0 -0.79375,2.91042 -1.058333,4.49792 -0.264584,1.5875 -0.264584,2.11667 -0.529167,4.23334 0,0.26458 0,0.52916 0.264583,0.26458 z"
     id="path3037-7-5-5" />
  <path
     style="fill:#000000;fill-opacity:1;stroke:none;stroke-width:0.264583"
     d="m 72.628126,116.0198 c 0.264583,-1.05833 1.322916,-3.70417 3.175,-3.70417 2.38125,0 3.439583,2.11667 3.439583,4.7625 0,1.85209 -0.682347,3.07242 -1.322917,4.49792 -0.682064,1.51784 -1.687861,2.87269 -2.645833,4.23333 -1.229069,1.7457 -3.96875,5.02709 -3.96875,5.02709 0,0 -2.739681,-3.28139 -3.96875,-5.02709 -0.957971,-1.36064 -1.963769,-2.71549 -2.645833,-4.23333 -0.64057,-1.4255 -1.322917,-2.64583 -1.322917,-4.49792 0,-2.64583 1.058334,-4.7625 3.439583,-4.7625 1.852084,0 2.910417,2.64584 3.175,3.70417 0.264584,0.26458 0.264584,0 0.264584,-0.26458 -0.264584,-2.11667 -0.264584,-2.64584 -0.529167,-4.23334 -0.264583,-1.5875 -1.058333,-4.49792 -1.058333,-4.49792 1.322916,0.52917 3.96875,0.52917 5.291666,0 0,0 -0.79375,2.91042 -1.058333,4.49792 -0.264583,1.5875 -0.264583,2.11667 -0.529167,4.23334 0,0.26458 0,0.52916 0.264584,0.26458 z"
     id="path3037-7-1-4" />
</svg>
